<svg xmlns="http://www.w3.org/2000/svg" xmlns:xlink="http://www.w3.org/1999/xlink" width="538" height="563"><switch><g><path fill="#F3F7FF" d="M54.9 300.7c-5.6-76.8 94.1-146.6 177.4-168.4 62.2-16.3 145.6-13.7 162.9 17.7 11.4 20.8-12 36.2.1 62.9 16.6 36.8 70.9 26.4 96.6 65.1 16.6 24.9 14 59.4-2.9 84.2-26.8 39.3-85.7 48.5-121.8 46.1-49.9-3.3-206.7 10.1-252.3-8.7-37.6-15.4-57.9-70.2-60-98.9z"/><circle fill="none" stroke="#FFF" stroke-width="8" stroke-miterlimit="10" cx="79.2" cy="302.4" r="12.5"/><circle fill="none" stroke="#FFF" stroke-width="8" stroke-miterlimit="10" cx="85.6" cy="312.7" r="7.3"/><circle fill="none" stroke="#FFF" stroke-width="8" stroke-miterlimit="10" cx="322.7" cy="203.4" r="3.6"/><circle fill="none" stroke="#FFF" stroke-width="8" stroke-miterlimit="10" cx="251.5" cy="138.3" r="3.6"/><circle fill="none" stroke="#FFF" stroke-width="8" stroke-miterlimit="10" cx="369.3" cy="208.2" r="3.6"/><circle fill="none" stroke="#FFF" stroke-width="8" stroke-miterlimit="10" cx="323.7" cy="177.7" r="3.6"/><path fill="none" stroke="#FFF" stroke-width="8" stroke-miterlimit="10" d="M347.4 145.5L336 156.8h27.7zM381.1 181.3l5.7 5.7h-13.9zM211.3 147.2l5.7 5.7h-13.9zM470.1 278.2l-11.4 11.4h27.7z"/><g opacity=".3"><path clip-rule="evenodd" fill="none" stroke="#9AD6FD" stroke-width="4" stroke-miterlimit="10" d="M431.2 395.9s5.7-38.7-21.1-60.2"/><linearGradient id="a" gradientUnits="userSpaceOnUse" x1="5712.806" y1="208.402" x2="5730.139" y2="208.402" gradientTransform="scale(-1 1) rotate(3.761 13.232 -93256.384)"><stop offset="0" stop-color="#9ad6fd"/><stop offset=".47" stop-color="#c0e4fd"/><stop offset="1" stop-color="#ffdf96"/></linearGradient><path fill="url(#a)" d="M431.4 386.6s-5.9-9.6-18-10.2c0 0 3.8 12 18 10.2z"/><linearGradient id="b" gradientUnits="userSpaceOnUse" x1="3011.237" y1="3385.997" x2="3028.57" y2="3385.997" gradientTransform="scale(1 -1) rotate(72.884 4276.9 -242.278)"><stop offset="0" stop-color="#9ad6fd"/><stop offset=".47" stop-color="#c0e4fd"/><stop offset="1" stop-color="#ffdf96"/></linearGradient><path fill="url(#b)" d="M431.4 382.4s11-2.1 16-13.2c0 0-12.7-.7-16 13.2z"/><linearGradient id="c" gradientUnits="userSpaceOnUse" x1="3028.993" y1="3397.041" x2="3041.677" y2="3397.041" gradientTransform="scale(1 -1) rotate(72.884 4276.9 -242.278)"><stop offset="0" stop-color="#9ad6fd"/><stop offset=".47" stop-color="#c0e4fd"/><stop offset="1" stop-color="#ffdf96"/></linearGradient><path fill="url(#c)" d="M427.5 362.6s8.1-1.5 11.7-9.7c0 .1-9.2-.4-11.7 9.7z"/><linearGradient id="d" gradientUnits="userSpaceOnUse" x1="419.282" y1="345.007" x2="428.236" y2="345.007"><stop offset="0" stop-color="#9ad6fd"/><stop offset=".47" stop-color="#c0e4fd"/><stop offset="1" stop-color="#ffdf96"/></linearGradient><path fill="url(#d)" d="M421.9 348.9s5.7-1.7 7.7-7.9c0 .1-6.7.4-7.7 7.9z"/><linearGradient id="e" gradientUnits="userSpaceOnUse" x1="3747.679" y1="3431.239" x2="3754.243" y2="3431.239" gradientTransform="scale(1 -1) rotate(89.364 3988.655 -138.35)"><stop offset="0" stop-color="#9ad6fd"/><stop offset=".47" stop-color="#c0e4fd"/><stop offset="1" stop-color="#ffdf96"/></linearGradient><path fill="url(#e)" d="M414.5 339.6s3.8-1.9 4.4-6.5c-.1 0-4.7 1.1-4.4 6.5z"/><linearGradient id="f" gradientUnits="userSpaceOnUse" x1="5713.488" y1="192.93" x2="5727.504" y2="192.93" gradientTransform="scale(-1 1) rotate(3.761 13.232 -93256.384)"><stop offset="0" stop-color="#9ad6fd"/><stop offset=".47" stop-color="#c0e4fd"/><stop offset="1" stop-color="#ffdf96"/></linearGradient><path fill="url(#f)" d="M429.6 370.1s-4.8-7.7-14.6-8.3c0 .1 3.2 9.8 14.6 8.3z"/><linearGradient id="g" gradientUnits="userSpaceOnUse" x1="430.669" y1="354.004" x2="409.776" y2="354.004"><stop offset="0" stop-color="#9ad6fd"/><stop offset=".47" stop-color="#c0e4fd"/><stop offset="1" stop-color="#ffdf96"/></linearGradient><path fill="url(#g)" d="M425.2 355.7s-6-5.9-14.9-4.2c0 .1 5 8.1 14.9 4.2z"/><linearGradient id="h" gradientUnits="userSpaceOnUse" x1="5423.17" y1="-555.576" x2="5431.105" y2="-555.576" gradientTransform="scale(-1 1) rotate(22.297 226.716 -14924.438)"><stop offset="0" stop-color="#9ad6fd"/><stop offset=".47" stop-color="#c0e4fd"/><stop offset="1" stop-color="#ffdf96"/></linearGradient><path fill="url(#h)" d="M418.1 344s-3.9-3.3-9.3-1.8c-.1 0 3.4 4.7 9.3 1.8z"/><linearGradient id="i" gradientUnits="userSpaceOnUse" x1="4882.209" y1="-1204.638" x2="4886.021" y2="-1204.638" gradientTransform="scale(-1 1) rotate(42.633 260.248 -7216.713)"><stop offset="0" stop-color="#9ad6fd"/><stop offset=".47" stop-color="#c0e4fd"/><stop offset="1" stop-color="#ffdf96"/></linearGradient><path fill="url(#i)" d="M412.2 337.8s-2.3-.8-4.5.7c0 0 2.3 1.5 4.5-.7z"/><linearGradient id="j" gradientUnits="userSpaceOnUse" x1="5730.131" y1="160.987" x2="5733.319" y2="160.987" gradientTransform="scale(-1 1) rotate(3.761 13.232 -93256.384)"><stop offset="0" stop-color="#9ad6fd"/><stop offset=".47" stop-color="#c0e4fd"/><stop offset="1" stop-color="#ffdf96"/></linearGradient><path fill="url(#j)" d="M407.4 335c0 .7.8 1.2 1.7 1.2.9-.1 1.6-.7 1.5-1.4 0-.7-.8-1.2-1.7-1.2-.8.1-1.5.7-1.5 1.4z"/></g><g opacity=".3"><path clip-rule="evenodd" fill="none" stroke="#9AD6FD" stroke-width="4" stroke-miterlimit="10" d="M431.6 401.7s-14.7-100.2 54.5-155.9"/><path fill="#9AD6FD" d="M431 377.7s15.2-24.8 46.7-26.4c0-.1-10.1 31.1-46.7 26.4zM430.9 366.8s-28.6-5.4-41.4-34.2c.1 0 32.8-1.8 41.4 34.2zM441 315.6s-20.9-3.9-30.3-25c0-.1 23.9-1.3 30.3 25zM455.5 280.1s-14.8-4.4-20-20.4c.1.1 17.5 1 20 20.4zM474.8 256.1s-9.8-5-11.3-16.9c0 0 12.1 2.9 11.3 16.9zM435.5 335s12.3-20 37.8-21.4c0 0-8.1 25.2-37.8 21.4zM447 297.7s15.5-15.2 38.6-10.8c0 0-12.9 20.8-38.6 10.8zM465.5 267.4s10.2-8.5 24.1-4.7c0 0-8.9 12.1-24.1 4.7zM480.7 251.2s6-2.1 11.6 1.9c0 .1-6 4-11.6-1.9zM493 244c-.1 1.8-2.1 3.2-4.3 3-2.3-.1-4-1.7-3.9-3.5.1-1.8 2.1-3.2 4.3-3 2.2.1 4 1.7 3.9 3.5z"/></g><g opacity=".3"><path clip-rule="evenodd" fill="none" stroke="#9AD6FD" stroke-width="4" stroke-miterlimit="10" d="M106.5 397.8s-5.7-38.7 21.1-60.2"/><linearGradient id="k" gradientUnits="userSpaceOnUse" x1="6985.118" y1="126.636" x2="7002.451" y2="126.636" gradientTransform="rotate(3.761 -355.41 -104482.87)"><stop offset="0" stop-color="#9ad6fd"/><stop offset=".47" stop-color="#c0e4fd"/><stop offset="1" stop-color="#ffdf96"/></linearGradient><path fill="url(#k)" d="M106.2 388.5s5.9-9.6 18-10.2c.1 0-3.8 12-18 10.2z"/><linearGradient id="l" gradientUnits="userSpaceOnUse" x1="2634.237" y1="4603.876" x2="2651.571" y2="4603.876" gradientTransform="rotate(-107.116 -189.747 3430.23)"><stop offset="0" stop-color="#9ad6fd"/><stop offset=".47" stop-color="#c0e4fd"/><stop offset="1" stop-color="#ffdf96"/></linearGradient><path fill="url(#l)" d="M106.2 384.3s-11-2.1-16-13.2c0 0 12.7-.7 16 13.2z"/><linearGradient id="m" gradientUnits="userSpaceOnUse" x1="2651.993" y1="4614.919" x2="2664.677" y2="4614.919" gradientTransform="rotate(-107.116 -189.747 3430.23)"><stop offset="0" stop-color="#9ad6fd"/><stop offset=".47" stop-color="#c0e4fd"/><stop offset="1" stop-color="#ffdf96"/></linearGradient><path fill="url(#m)" d="M110.1 364.5s-8.1-1.5-11.7-9.7c0 0 9.3-.5 11.7 9.7z"/><linearGradient id="n" gradientUnits="userSpaceOnUse" x1="-855.596" y1="346.884" x2="-846.642" y2="346.884" gradientTransform="matrix(-1 0 0 1 -737.251 0)"><stop offset="0" stop-color="#9ad6fd"/><stop offset=".47" stop-color="#c0e4fd"/><stop offset="1" stop-color="#ffdf96"/></linearGradient><path fill="url(#n)" d="M115.7 350.8s-5.7-1.7-7.7-7.9c0 .1 6.7.4 7.7 7.9z"/><linearGradient id="o" gradientUnits="userSpaceOnUse" x1="3731.65" y1="4706.066" x2="3738.214" y2="4706.066" gradientTransform="scale(-1) rotate(89.364 4357.295 234.405)"><stop offset="0" stop-color="#9ad6fd"/><stop offset=".47" stop-color="#c0e4fd"/><stop offset="1" stop-color="#ffdf96"/></linearGradient><path fill="url(#o)" d="M123.2 341.5s-3.8-1.9-4.4-6.5c0 0 4.7 1.1 4.4 6.5z"/><linearGradient id="p" gradientUnits="userSpaceOnUse" x1="6985.8" y1="111.164" x2="6999.816" y2="111.164" gradientTransform="rotate(3.761 -355.41 -104482.87)"><stop offset="0" stop-color="#9ad6fd"/><stop offset=".47" stop-color="#c0e4fd"/><stop offset="1" stop-color="#ffdf96"/></linearGradient><path fill="url(#p)" d="M108 372s4.8-7.7 14.6-8.3c0 0-3.1 9.8-14.6 8.3z"/><linearGradient id="q" gradientUnits="userSpaceOnUse" x1="-844.209" y1="355.881" x2="-865.102" y2="355.881" gradientTransform="matrix(-1 0 0 1 -737.251 0)"><stop offset="0" stop-color="#9ad6fd"/><stop offset=".47" stop-color="#c0e4fd"/><stop offset="1" stop-color="#ffdf96"/></linearGradient><path fill="url(#q)" d="M112.4 357.6s6-5.9 14.9-4.2c0 0-4.9 8.1-14.9 4.2z"/><linearGradient id="r" gradientUnits="userSpaceOnUse" x1="6603.471" y1="-1037.557" x2="6611.405" y2="-1037.557" gradientTransform="rotate(22.297 -141.92 -16794.993)"><stop offset="0" stop-color="#9ad6fd"/><stop offset=".47" stop-color="#c0e4fd"/><stop offset="1" stop-color="#ffdf96"/></linearGradient><path fill="url(#r)" d="M119.6 345.9s3.9-3.3 9.3-1.8c0 0-3.5 4.7-9.3 1.8z"/><linearGradient id="s" gradientUnits="userSpaceOnUse" x1="5821.418" y1="-2066.74" x2="5825.23" y2="-2066.74" gradientTransform="rotate(42.634 -108.433 -8161.361)"><stop offset="0" stop-color="#9ad6fd"/><stop offset=".47" stop-color="#c0e4fd"/><stop offset="1" stop-color="#ffdf96"/></linearGradient><path fill="url(#s)" d="M125.4 339.7s2.3-.8 4.5.7c0 0-2.3 1.5-4.5-.7z"/><linearGradient id="t" gradientUnits="userSpaceOnUse" x1="7002.444" y1="79.221" x2="7005.631" y2="79.221" gradientTransform="rotate(3.761 -355.41 -104482.87)"><stop offset="0" stop-color="#9ad6fd"/><stop offset=".47" stop-color="#c0e4fd"/><stop offset="1" stop-color="#ffdf96"/></linearGradient><path fill="url(#t)" d="M130.2 336.9c0 .7-.8 1.2-1.7 1.2-.9-.1-1.6-.7-1.5-1.4 0-.7.8-1.2 1.7-1.2.9.1 1.5.7 1.5 1.4z"/></g><g opacity=".3"><path clip-rule="evenodd" fill="none" stroke="#9AD6FD" stroke-width="4" stroke-miterlimit="10" d="M106 403.6s14.7-100.2-54.5-155.9"/><path fill="#9AD6FD" d="M106.7 379.5S91.5 354.7 60 353.1c0 0 10 31.2 46.7 26.4zM106.7 368.7s28.6-5.4 41.4-34.2c0-.1-32.8-1.8-41.4 34.2zM96.7 317.5s20.9-3.9 30.3-25c-.1-.1-24-1.4-30.3 25zM82.1 282s14.8-4.4 20-20.4c-.1.1-17.4.9-20 20.4zM62.8 258s9.8-5 11.3-16.9c0 0-12 2.9-11.3 16.9zM102.1 336.9s-12.3-20-37.8-21.4c0 0 8.1 25.2 37.8 21.4zM90.6 299.6S75.1 284.4 52 288.8c0 0 12.9 20.8 38.6 10.8zM72.2 269.3s-10.2-8.5-24.1-4.7c-.1 0 8.8 12.1 24.1 4.7zM57 253.1s-6-2.1-11.6 1.9c-.1 0 5.9 4 11.6-1.9zM44.7 245.9c.1 1.8 2.1 3.2 4.3 3 2.3-.1 4-1.7 3.9-3.5-.1-1.8-2.1-3.2-4.3-3-2.3.1-4.1 1.7-3.9 3.5z"/></g><path fill="#8ACAFF" d="M508.2 380.3s-22.6-3.3-50.7 13.9c-3.5 2.1-7 3.9-10.7 5.2-25.7 9.8-53.5 1.8-58.2-13.2 8.2-15.5 7.8-11.8 7.8-11.8s16.2-11.3 36.6-15.8c12.9-2.9 27.5-3.1 40.8 3.8l34.4 17.9z"/><path fill="none" stroke="#FFF" stroke-width="10.293" stroke-linecap="round" stroke-miterlimit="10" d="M485.4 376.4s-17.7-6.1-47.3 2.3c-29.6 8.4-35.7 5.3-35.7 5.3"/><linearGradient id="u" gradientUnits="userSpaceOnUse" x1="781.275" y1="953.469" x2="834.307" y2="953.469" gradientTransform="rotate(47.334 1262.369 229.883)"><stop offset="0" stop-color="#ffe6f0"/><stop offset="1" stop-color="#f9b2df"/></linearGradient><path fill="url(#u)" d="M446.8 399.4c-25.7 9.8-53.5 1.8-58.2-13.2 8.2-15.5 7.8-11.8 7.8-11.8s16.2-11.3 36.6-15.8c-6 4.4-16.5 14.2-12.8 27 5 17.5 26.3 13.9 26.6 13.8z"/><path fill="#73B9FF" d="M497.5 317.8s-20.8 8.8-35.7 37.7c-1.8 3.6-4 6.9-6.3 9.9-16.7 21.5-44.3 29-55.9 18.7-1-17.3.6-14 .6-14s7.9-17.8 22.8-32.1c9.4-9 21.6-16.7 36.3-17.7l38.2-2.5z"/><path fill="none" stroke="#FFF" stroke-width="10.293" stroke-linecap="round" stroke-miterlimit="10" d="M476.2 326.1s-18 4-38.7 26.2c-20.7 22.3-27.4 22.8-27.4 22.8"/><linearGradient id="v" gradientUnits="userSpaceOnUse" x1="495.513" y1="159.882" x2="547.855" y2="159.882" gradientTransform="rotate(16.039 -258.92 -69.71)"><stop offset="0" stop-color="#ffe6f0"/><stop offset="1" stop-color="#f9b2df"/></linearGradient><path fill="url(#v)" d="M455.5 365.3c-16.7 21.5-44.3 29-55.9 18.7-1-17.3.6-14 .6-14s7.9-17.8 22.8-32.1c-2.8 6.8-6.7 20.5 3 29.4 13.2 12.2 29.3-1.8 29.5-2z"/><path fill="#5AB5FF" d="M483.2 262.8s-11.1 19.7-41.5 31.2c-3.7 1.4-7.3 3.2-10.5 5.2-23.2 14.1-33.8 40.7-24.9 53.4 17 3 13.9 1 13.9 1s18.6-5.8 34.5-19c10-8.3 19-19.5 21.7-34.1l6.8-37.7z"/><path fill="none" stroke="#FFF" stroke-width="10.293" stroke-linecap="round" stroke-miterlimit="10" d="M472.5 282.9s-6 17.5-30.4 35.5c-24.5 18.1-25.8 24.7-25.8 24.7"/><linearGradient id="w" gradientUnits="userSpaceOnUse" x1="2672.117" y1="1506.422" x2="2724.462" y2="1506.422" gradientTransform="scale(-1 1) rotate(-80.444 438.129 2763.987)"><stop offset="0" stop-color="#ffe6f0"/><stop offset="1" stop-color="#f9b2df"/></linearGradient><path fill="url(#w)" d="M431.2 299.1c-23.2 14.1-33.8 40.7-24.9 53.4 17 3 13.9 1 13.9 1s18.6-5.8 34.5-19c-7 2-21.1 4.3-28.9-6.3-10.5-14.5 5.2-28.9 5.4-29.1z"/><path fill="#8ACAFF" d="M24.2 380.3s22.6-3.3 50.7 13.9c3.5 2.1 7 3.9 10.7 5.2 25.7 9.8 53.5 1.8 58.2-13.2-8.2-15.5-7.8-11.8-7.8-11.8s-16.2-11.3-36.6-15.8c-12.9-2.9-27.5-3.1-40.8 3.8l-34.4 17.9z"/><path fill="none" stroke="#FFF" stroke-width="10.293" stroke-linecap="round" stroke-miterlimit="10" d="M46.9 376.4s17.7-6.1 47.3 2.3c29.6 8.4 35.7 5.3 35.7 5.3"/><linearGradient id="x" gradientUnits="userSpaceOnUse" x1="-159.728" y1="1974.45" x2="-106.695" y2="1974.45" gradientTransform="scale(-1 1) rotate(47.334 1690.422 1206.536)"><stop offset="0" stop-color="#ffe6f0"/><stop offset="1" stop-color="#f9b2df"/></linearGradient><path fill="url(#x)" d="M85.6 399.4c25.7 9.8 53.5 1.8 58.2-13.2-8.2-15.5-7.8-11.8-7.8-11.8s-16.2-11.3-36.6-15.8c6 4.4 16.5 14.2 12.8 27-5.1 17.5-26.3 13.9-26.6 13.8z"/><path fill="#73B9FF" d="M34.9 317.8s20.8 8.8 35.7 37.7c1.8 3.6 4 6.9 6.3 9.9 16.7 21.5 44.3 29 55.9 18.7 1-17.3-.6-14-.6-14s-7.9-17.8-22.8-32.1c-9.4-9-21.6-16.7-36.3-17.7l-38.2-2.5z"/><path fill="none" stroke="#FFF" stroke-width="10.293" stroke-linecap="round" stroke-miterlimit="10" d="M56.1 326.1s18 4 38.7 26.2c20.7 22.3 27.4 22.8 27.4 22.8"/><linearGradient id="y" gradientUnits="userSpaceOnUse" x1="-838.848" y1="543.489" x2="-786.506" y2="543.489" gradientTransform="scale(-1 1) rotate(16.039 169.109 2968.364)"><stop offset="0" stop-color="#ffe6f0"/><stop offset="1" stop-color="#f9b2df"/></linearGradient><path fill="url(#y)" d="M76.9 365.3c16.7 21.5 44.3 29 55.9 18.7 1-17.3-.6-14-.6-14s-7.9-17.8-22.8-32.1c2.8 6.8 6.7 20.5-3 29.4-13.2 12.2-29.3-1.8-29.5-2z"/><path fill="#5AB5FF" d="M49.2 262.8s11.1 19.7 41.5 31.2c3.7 1.4 7.3 3.2 10.5 5.2 23.2 14.1 33.8 40.7 24.9 53.4-17 3-13.9 1-13.9 1s-18.6-5.8-34.5-19c-10-8.3-19-19.5-21.7-34.1l-6.8-37.7z"/><path fill="none" stroke="#FFF" stroke-width="10.293" stroke-linecap="round" stroke-miterlimit="10" d="M59.8 282.9s6 17.5 30.4 35.5c24.5 18.1 25.8 24.7 25.8 24.7"/><linearGradient id="z" gradientUnits="userSpaceOnUse" x1="2902.611" y1="2875.637" x2="2954.956" y2="2875.637" gradientTransform="rotate(-80.444 10.077 3270.12)"><stop offset="0" stop-color="#ffe6f0"/><stop offset="1" stop-color="#f9b2df"/></linearGradient><path fill="url(#z)" d="M101.2 299.1c23.2 14.1 33.8 40.7 24.9 53.4-17 3-13.9 1-13.9 1s-18.6-5.8-34.5-19c7 2 21.1 4.3 28.9-6.3 10.5-14.5-5.2-28.9-5.4-29.1z"/><ellipse fill="#E9F0FF" cx="247.9" cy="420.5" rx="197.7" ry="13.6"/><g opacity=".14"><path clip-rule="evenodd" fill="none" stroke="#6D6AFE" stroke-width="4" stroke-miterlimit="10" d="M90.1 406.2s-3.6-53.6 35.3-80.2"/><linearGradient id="A" gradientUnits="userSpaceOnUse" x1="77.23" y1="810.199" x2="101.043" y2="810.199" gradientTransform="rotate(8.216 3039.271 699.763)"><stop offset="0" stop-color="#6d6afe"/><stop offset="1" stop-color="#3fb0f7"/></linearGradient><path fill="url(#A)" d="M90.7 393.5s9.1-12.5 25.8-12.1c0 0-6.5 16.1-25.8 12.1z"/><linearGradient id="B" gradientUnits="userSpaceOnUse" x1="4456.946" y1="-2095.709" x2="4480.758" y2="-2095.709" gradientTransform="rotate(-102.656 3264.733 896.955)"><stop offset="0" stop-color="#6d6afe"/><stop offset="1" stop-color="#3fb0f7"/></linearGradient><path fill="url(#B)" d="M91.2 387.7s-14.9-4-20.5-19.8c0 0 17.4.4 20.5 19.8z"/><linearGradient id="C" gradientUnits="userSpaceOnUse" x1="4481.339" y1="-2080.537" x2="4498.765" y2="-2080.537" gradientTransform="rotate(-102.656 3264.733 896.955)"><stop offset="0" stop-color="#6d6afe"/><stop offset="1" stop-color="#3fb0f7"/></linearGradient><path fill="url(#C)" d="M98.6 361s-10.9-2.9-15-14.5c0 0 12.7.3 15 14.5z"/><linearGradient id="D" gradientUnits="userSpaceOnUse" x1="4176.721" y1="-2162.959" x2="4189.372" y2="-2162.959" gradientTransform="rotate(-96.679 3255.15 902.198)"><stop offset="0" stop-color="#6d6afe"/><stop offset="1" stop-color="#3fb0f7"/></linearGradient><path fill="url(#D)" d="M107.8 342.9s-7.6-3-9.7-11.6c-.1 0 9.1 1.2 9.7 11.6z"/><linearGradient id="E" gradientUnits="userSpaceOnUse" x1="3594.999" y1="-2228.273" x2="3604.016" y2="-2228.273" gradientTransform="rotate(-86.176 3223.407 910.894)"><stop offset="0" stop-color="#6d6afe"/><stop offset="1" stop-color="#3fb0f7"/></linearGradient><path fill="url(#E)" d="M119 331s-5-3.1-5.3-9.4c0 0 6.2 2 5.3 9.4z"/><linearGradient id="F" gradientUnits="userSpaceOnUse" x1="78.169" y1="788.943" x2="97.425" y2="788.943" gradientTransform="rotate(8.216 3039.271 699.763)"><stop offset="0" stop-color="#6d6afe"/><stop offset="1" stop-color="#3fb0f7"/></linearGradient><path fill="url(#F)" d="M94.9 371.1s7.3-10.1 20.9-9.8c0 0-5.3 13-20.9 9.8z"/><linearGradient id="G" gradientUnits="userSpaceOnUse" x1="191.576" y1="1555.202" x2="209.367" y2="1555.202" gradientTransform="rotate(22.165 3233.537 729.148)"><stop offset="0" stop-color="#6d6afe"/><stop offset="1" stop-color="#3fb0f7"/></linearGradient><path fill="url(#G)" d="M102.5 351.8s8.8-7.4 20.9-4.1c0 0-7.7 10.5-20.9 4.1z"/><linearGradient id="H" gradientUnits="userSpaceOnUse" x1="271.265" y1="1789.972" x2="282.165" y2="1789.972" gradientTransform="rotate(26.76 3255.332 733.31)"><stop offset="0" stop-color="#6d6afe"/><stop offset="1" stop-color="#3fb0f7"/></linearGradient><path fill="url(#H)" d="M113.5 336.6s5.8-4.1 13-1.5c0 0-5.2 6-13 1.5z"/><linearGradient id="I" gradientUnits="userSpaceOnUse" x1="867.276" y1="2781.805" x2="872.513" y2="2781.805" gradientTransform="rotate(47.094 3311.316 701.371)"><stop offset="0" stop-color="#6d6afe"/><stop offset="1" stop-color="#3fb0f7"/></linearGradient><path fill="url(#I)" d="M122.2 328.6s3.3-.9 6.1 1.5c0 0-3.3 1.9-6.1-1.5z"/><linearGradient id="J" gradientUnits="userSpaceOnUse" x1="101.037" y1="745.061" x2="105.417" y2="745.061" gradientTransform="rotate(8.216 3039.271 699.763)"><stop offset="0" stop-color="#6d6afe"/><stop offset="1" stop-color="#3fb0f7"/></linearGradient><path fill="url(#J)" d="M129.1 325.3c-.1 1-1.2 1.6-2.4 1.4-1.2-.2-2.1-1.1-1.9-2 .1-1 1.2-1.6 2.4-1.4 1.1.2 2 1.1 1.9 2z"/></g><path fill="#83CDEA" d="M89.3 406.5l-1.1-.1c0-.1 1.5-11.1-.8-24.9-2.1-12.7-7.9-30.4-23.6-42.7l.7-.8c7 5.6 12.7 12.6 16.9 21 3.3 6.7 5.7 14.3 7.1 22.4 2.3 13.8.8 24.9.8 25.1z"/><path fill="#83CDEA" d="M89 395.8s-6.8-10.8-20.6-11.4c0 0 4.5 13.7 20.6 11.4zM88.9 391.1s12.5-2.5 18-15.2c0 0-14.4-.7-18 15.2zM84.3 368.7s9.1-1.8 13.2-11.1c0-.1-10.6-.5-13.2 11.1zM77.7 353.2s6.5-2 8.7-9c0 0-7.6.4-8.7 9zM69.2 342.7s4.3-2.2 4.9-7.4c0 0-5.3 1.3-4.9 7.4zM86.8 377.1s-5.5-8.7-16.7-9.2c0 0 3.7 11.1 16.7 9.2zM81.6 360.8s-6.9-6.6-17-4.6c0 .1 5.7 9.1 17 4.6zM73.3 347.6s-4.5-3.7-10.6-1.9c0 0 4 5.2 10.6 1.9zM66.6 340.6s-2.7-.9-5.1.9c0 0 2.7 1.7 5.1-.9zM61.2 337.5c.1.8.9 1.4 1.9 1.3 1-.1 1.8-.8 1.7-1.6-.1-.8-.9-1.4-1.9-1.3-1 .1-1.8.8-1.7 1.6z"/><path fill="#9FDFFF" d="M89.5 406.2c0-.1-.9-13.7 3.1-30.3 2.3-9.8 5.8-18.7 10.4-26.5 5.7-9.8 13.2-17.8 22.1-23.9l.6.9c-20 13.6-28.4 34.6-32 49.7-3.9 16.5-3.1 29.9-3 30l-1.2.1z"/><path fill="#9FDFFF" d="M90.7 393.5s9.1-12.5 25.8-12.1c0 0-6.5 16.1-25.8 12.1zM91.2 387.7s-14.9-4-20.5-19.8c0 0 17.4.4 20.5 19.8zM98.6 361s-10.9-2.9-15-14.5c0 0 12.7.3 15 14.5zM107.8 342.9s-7.6-3-9.7-11.6c-.1 0 9.1 1.2 9.7 11.6zM119 331s-5-3.1-5.3-9.4c0 0 6.2 2 5.3 9.4zM94.9 371.1s7.3-10.1 20.9-9.8c0 0-5.3 13-20.9 9.8zM102.5 351.8s8.8-7.4 20.9-4.1c0 0-7.7 10.5-20.9 4.1zM113.5 336.6s5.8-4.1 13-1.5c0 0-5.2 6-13 1.5zM122.2 328.6s3.3-.9 6.1 1.5c0 0-3.3 1.9-6.1-1.5zM129.1 325.3c-.1 1-1.2 1.6-2.4 1.4-1.2-.2-2.1-1.1-1.9-2 .1-1 1.2-1.6 2.4-1.4 1.1.2 2 1.1 1.9 2z"/><linearGradient id="K" gradientUnits="userSpaceOnUse" x1="89.43" y1="400.485" x2="89.43" y2="417.849"><stop offset="0" stop-color="#e6d196"/><stop offset="1" stop-color="#e69696"/></linearGradient><path fill="url(#K)" d="M96.4 403.6l-.2 1.3-1.4 13H84.4l-1.8-13-.1-1.3z"/><linearGradient id="L" gradientUnits="userSpaceOnUse" x1="89.447" y1="419.112" x2="89.447" y2="402.953"><stop offset="0" stop-color="#e6d196"/><stop offset="1" stop-color="#e69696"/></linearGradient><path opacity=".37" fill="url(#L)" d="M96.2 404.9l-1.4 13H84.4l-1.8-13z"/><radialGradient id="M" cx="212.327" cy="556.277" r="199.835" gradientTransform="matrix(.7628 0 0 .7714 69.126 -181.719)" gradientUnits="userSpaceOnUse"><stop offset="0" stop-color="#ffcb39"/><stop offset="1" stop-color="#ff7b60"/></radialGradient><path fill="url(#M)" d="M318 246.9c0-48-38.5-87-86-87s-86 38.9-86 87c0 31.5 16.6 59.1 41.3 74.3 0 0 9.9 6.4 9.9 36.8h69.6c0-30.4 9.9-36.8 9.9-36.8 24.8-15.2 41.3-42.8 41.3-74.3z"/><path fill="none" stroke="#FFF" stroke-width="5.146" stroke-miterlimit="10" d="M242.9 359.9s-.3-37.3 5.5-73.7c5.9-36.5 19.5-36.6 21-30.2 1.5 6.3-8.6 17.6-25.6 13.4-17-4.2-23.8-38.8-16.4-41.4 10.4-3.6 13.4 22 6 33.1-7.4 11.1-19.2 14.8-31 7.5-11.9-7.3-8.3-18.7-1.6-14.4 6.8 4.3 14.2 32.6 17.1 51.8 2.9 19.2 6.1 54 6.1 54h18.9z"/><linearGradient id="N" gradientUnits="userSpaceOnUse" x1="232.229" y1="380.695" x2="231.992" y2="361.51"><stop offset="0" stop-color="#989dff"/><stop offset="1" stop-color="#6855f7"/></linearGradient><path fill="url(#N)" d="M267.2 373.8H197c-4.3 0-7.9-3.5-7.9-7.9v-.1c0-4.3 3.5-7.9 7.9-7.9h70.2c4.3 0 7.9 3.5 7.9 7.9v.1c-.1 4.4-3.6 7.9-7.9 7.9z"/><linearGradient id="O" gradientUnits="userSpaceOnUse" x1="232.217" y1="393.613" x2="231.98" y2="377.046"><stop offset="0" stop-color="#989dff"/><stop offset="1" stop-color="#6855f7"/></linearGradient><path fill="url(#O)" d="M261 389.5h-57.9c-4.3 0-7.9-3.5-7.9-7.9v-.1c0-4.3 3.5-7.9 7.9-7.9H261c4.3 0 7.9 3.5 7.9 7.9v.1c-.1 4.4-3.6 7.9-7.9 7.9z"/><linearGradient id="P" gradientUnits="userSpaceOnUse" x1="232.046" y1="406.587" x2="232.046" y2="392.389"><stop offset="0" stop-color="#989dff"/><stop offset="1" stop-color="#6855f7"/></linearGradient><path fill="url(#P)" d="M250.8 403.7h-37.5c-3.9 0-7.1-3.2-7.1-7.1v-.1c0-3.9 3.2-7.1 7.1-7.1h37.5c3.9 0 7.1 3.2 7.1 7.1v.1c0 4-3.2 7.1-7.1 7.1z"/><linearGradient id="Q" gradientUnits="userSpaceOnUse" x1="232.046" y1="420.784" x2="232.046" y2="406.587"><stop offset="0" stop-color="#989dff"/><stop offset="1" stop-color="#6855f7"/></linearGradient><path fill="url(#Q)" d="M233.9 417.9h-3.8c-3.9 0-7.1-3.2-7.1-7.1v-.1c0-3.9 3.2-7.1 7.1-7.1h3.8c3.9 0 7.1 3.2 7.1 7.1v.1c0 4-3.2 7.1-7.1 7.1z"/><defs><filter id="R" filterUnits="userSpaceOnUse" x="157.3" y="162" width="149.6" height="130.7"><feFlood result="back" flood-color="#fff" flood-opacity="1"/><feBlend in="SourceGraphic" in2="back"/></filter></defs><mask maskUnits="userSpaceOnUse" x="157.3" y="162" width="149.6" height="130.7" id="T"><g filter="url(#R)"><defs><filter id="S" filterUnits="userSpaceOnUse" x="157.3" y="162" width="149.6" height="130.7"><feFlood result="back" flood-color="#fff" flood-opacity="1"/><feBlend in="SourceGraphic" in2="back"/></filter></defs><linearGradient id="U" gradientUnits="userSpaceOnUse" x1="232.766" y1="258.433" x2="230.744" y2="171.013"><stop offset="0"/><stop offset="1" stop-color="#fff"/></linearGradient><ellipse mask="url(#T)" fill="url(#U)" cx="232" cy="227.3" rx="74.8" ry="65.4"/></g></mask><linearGradient id="V" gradientUnits="userSpaceOnUse" x1="232.766" y1="258.433" x2="230.744" y2="171.013"><stop offset="0" stop-color="#ffc53c"/><stop offset="1" stop-color="#ffcd50"/></linearGradient><ellipse fill="url(#V)" cx="232" cy="227.3" rx="74.8" ry="65.4"/><defs><filter id="W" filterUnits="userSpaceOnUse" x="176.6" y="164" width="111" height="75.3"><feFlood result="back" flood-color="#fff" flood-opacity="1"/><feBlend in="SourceGraphic" in2="back"/></filter></defs><mask maskUnits="userSpaceOnUse" x="176.6" y="164" width="111" height="75.3" id="Y"><g filter="url(#W)"><defs><filter id="X" filterUnits="userSpaceOnUse" x="176.6" y="164" width="111" height="75.3"><feFlood result="back" flood-color="#fff" flood-opacity="1"/><feBlend in="SourceGraphic" in2="back"/></filter></defs><linearGradient id="Z" gradientUnits="userSpaceOnUse" x1="232.283" y1="217.286" x2="231.713" y2="179.659"><stop offset="0"/><stop offset="1" stop-color="#fff"/></linearGradient><ellipse mask="url(#Y)" fill="url(#Z)" cx="232" cy="201.7" rx="55.5" ry="37.7"/></g></mask><linearGradient id="aa" gradientUnits="userSpaceOnUse" x1="232.283" y1="217.286" x2="231.713" y2="179.659"><stop offset="0" stop-color="#ffc53c"/><stop offset="1" stop-color="#ffda88"/></linearGradient><ellipse fill="url(#aa)" cx="232" cy="201.7" rx="55.5" ry="37.7"/><path fill="#748FFE" d="M335.4 409h29.8c32.6 0 59.1-26.4 59.1-59.1v-68.4c0-32.6-26.4-59.1-59.1-59.1h-29.8c-32.6 0-59.1 26.4-59.1 59.1v68.4c0 32.6 26.5 59.1 59.1 59.1z"/><path fill="#C0D8FF" d="M341.1 403.4H359c32.6 0 59.1-26.4 59.1-59.1v-57.7c0-32.6-26.4-59.1-59.1-59.1h-17.9c-32.6 0-59.1 26.4-59.1 59.1v57.7c.1 32.7 26.5 59.1 59.1 59.1z"/><linearGradient id="ab" gradientUnits="userSpaceOnUse" x1="70.704" y1="302.484" x2="281.297" y2="376.338"><stop offset="0" stop-color="#f3ccc3"/><stop offset="1" stop-color="#f3cc8b"/></linearGradient><path fill="url(#ab)" d="M165.2 420.9s-.1 0 0 0c-5.8.2-12.2-.3-19.1-1.6-65.8-12.8-65.4-88.1-36.6-137.8 17.4-29.9 38.3-35.9 54.4-35 10.6.6 19.2 4.2 23.1 5.8 13.4 5.6 9.9 27.8 3.7 44.2-6.2 16.5 14.3 24.1 24.1 47.5 8.8 20.9-.5 74.8-49.6 76.9z"/><linearGradient id="ac" gradientUnits="userSpaceOnUse" x1="96.657" y1="333.626" x2="217.753" y2="333.626"><stop offset="0" stop-color="#f3ccc3"/><stop offset="1" stop-color="#f3cc8b"/></linearGradient><path opacity=".3" fill="url(#ac)" d="M165.2 420.9s-.1 0 0 0c-4.2-.2-8.7-.7-13.4-1.6-65.8-12.8-65.4-88.1-36.6-137.8 15.4-26.5 33.6-34.2 48.7-35 10.6.6 19.2 4.2 23.1 5.8 13.4 5.6 9.9 27.8 3.7 44.2-6.2 16.5 14.3 24.1 24.1 47.5 8.8 20.9-.5 74.8-49.6 76.9z"/><linearGradient id="ad" gradientUnits="userSpaceOnUse" x1="142.02" y1="269.619" x2="168.357" y2="269.619"><stop offset="0" stop-color="#6537a2"/><stop offset="1" stop-color="#30046e"/></linearGradient><circle fill="url(#ad)" cx="155.2" cy="269.6" r="13.2"/><linearGradient id="ae" gradientUnits="userSpaceOnUse" x1="115.418" y1="297.817" x2="141.754" y2="297.817"><stop offset="0" stop-color="#fa897b"/><stop offset="1" stop-color="#ff1f33"/></linearGradient><circle fill="url(#ae)" cx="128.6" cy="297.8" r="13.2"/><linearGradient id="af" gradientUnits="userSpaceOnUse" x1="99.345" y1="340.486" x2="125.681" y2="340.486"><stop offset="0" stop-color="#e5ff0d"/><stop offset="1" stop-color="#fbb03b"/></linearGradient><circle fill="url(#af)" cx="112.5" cy="340.5" r="13.2"/><linearGradient id="ag" gradientUnits="userSpaceOnUse" x1="115.418" y1="378.014" x2="141.754" y2="378.014"><stop offset="0" stop-color="#1d00b9"/><stop offset="1" stop-color="#001b48"/></linearGradient><circle fill="url(#ag)" cx="128.6" cy="378" r="13.2"/><linearGradient id="ah" gradientUnits="userSpaceOnUse" x1="151.319" y1="401.427" x2="177.655" y2="401.427"><stop offset="0" stop-color="#e5ff0d"/><stop offset="1" stop-color="#7e9f0d"/></linearGradient><circle fill="url(#ah)" cx="164.5" cy="401.4" r="13.2"/><path fill="#748FFE" d="M335.7 233.8h28.7c5.2 0 9.4-4.2 9.4-9.4v-.1c0-5.2-4.2-9.4-9.4-9.4h-28.7c-5.2 0-9.4 4.2-9.4 9.4v.1c0 5.2 4.2 9.4 9.4 9.4z"/><path opacity=".5" fill="#FFF" d="M392.1 278h.1c8.3 0 15-6.7 15-15v-2.1c0-8.3-6.7-15-15-15h-.1c-8.3 0-15 6.7-15 15v2.1c0 8.3 6.7 15 15 15z"/><g opacity=".5"><defs><path id="ai" d="M365.7 250.2h-65.9"/></defs><use xlink:href="#ai" overflow="visible" fill="#FFF"/><clipPath id="aj"><use xlink:href="#ai" overflow="visible"/></clipPath><path clip-path="url(#aj)" fill="#FFF" d="M299.8 250.2zM301.1 250.2zM302.3 250.2zM303.5 250.2zM304.8 250.2zM306 250.2zM307.3 250.2zM308.5 250.2zM309.7 250.2zM311 250.2zM312.2 250.2zM313.5 250.2zM314.7 250.2zM316 250.2zM317.2 250.2zM318.4 250.2zM319.7 250.2zM320.9 250.2zM322.2 250.2zM323.4 250.2zM324.7 250.2zM325.9 250.2zM327.1 250.2zM328.4 250.2zM329.6 250.2zM330.9 250.2zM332.1 250.2zM333.4 250.2zM334.6 250.2zM335.8 250.2zM337.1 250.2zM338.3 250.2zM339.6 250.2zM340.8 250.2zM342 250.2zM343.3 250.2zM344.5 250.2zM345.8 250.2zM347 250.2zM348.3 250.2zM349.5 250.2zM350.7 250.2zM352 250.2zM353.2 250.2zM354.5 250.2zM355.7 250.2zM357 250.2zM358.2 250.2zM359.4 250.2zM360.7 250.2zM361.9 250.2zM363.2 250.2zM364.4 250.2zM365.7 250.2zM365.7 250.2z"/><path fill="#FFF" d="M365.7 250.8h-65.8c-.3 0-.6-.3-.6-.6s.3-.6.6-.6h65.8c.3 0 .6.3.6.6 0 .4-.3.6-.6.6z"/><g><defs><path id="ak" d="M365.7 261.1h-65.9"/></defs><use xlink:href="#ak" overflow="visible" fill="#FFF"/><clipPath id="al"><use xlink:href="#ak" overflow="visible"/></clipPath><path clip-path="url(#al)" fill="#FFF" d="M299.8 261.1zM301.1 261.1zM302.3 261.1zM303.5 261.1zM304.8 261.1zM306 261.1zM307.3 261.1zM308.5 261.1zM309.7 261.1zM311 261.1zM312.2 261.1zM313.5 261.1zM314.7 261.1zM316 261.1zM317.2 261.1zM318.4 261.1zM319.7 261.1zM320.9 261.1zM322.2 261.1zM323.4 261.1zM324.7 261.1zM325.9 261.1zM327.1 261.1zM328.4 261.1zM329.6 261.1zM330.9 261.1zM332.1 261.1zM333.4 261.1zM334.6 261.1zM335.8 261.1zM337.1 261.1zM338.3 261.1zM339.6 261.1zM340.8 261.1zM342 261.1zM343.3 261.1zM344.5 261.1zM345.8 261.1zM347 261.1zM348.3 261.1zM349.5 261.1zM350.7 261.1zM352 261.1zM353.2 261.1zM354.5 261.1zM355.7 261.1zM357 261.1zM358.2 261.1zM359.4 261.1zM360.7 261.1zM361.9 261.1zM363.2 261.1zM364.4 261.1zM365.7 261.1zM365.7 261.1z"/><path fill="#FFF" d="M365.7 261.7h-65.8c-.3 0-.6-.3-.6-.6s.3-.6.6-.6h65.8c.3 0 .6.3.6.6 0 .4-.3.6-.6.6z"/></g><g><defs><path id="am" d="M365.7 272.1h-65.9"/></defs><use xlink:href="#am" overflow="visible" fill="#FFF"/><clipPath id="an"><use xlink:href="#am" overflow="visible"/></clipPath><path clip-path="url(#an)" fill="#FFF" d="M299.8 272.1zM301.1 272.1zM302.3 272.1zM303.5 272.1zM304.8 272.1zM306 272.1zM307.3 272.1zM308.5 272.1zM309.7 272.1zM311 272.1zM312.2 272.1zM313.5 272.1zM314.7 272.1zM316 272.1zM317.2 272.1zM318.4 272.1zM319.7 272.1zM320.9 272.1zM322.2 272.1zM323.4 272.1zM324.7 272.1zM325.9 272.1zM327.1 272.1zM328.4 272.1zM329.6 272.1zM330.9 272.1zM332.1 272.1zM333.4 272.1zM334.6 272.1zM335.8 272.1zM337.1 272.1zM338.3 272.1zM339.6 272.1zM340.8 272.1zM342 272.1zM343.3 272.1zM344.5 272.1zM345.8 272.1zM347 272.1zM348.3 272.1zM349.5 272.1zM350.7 272.1zM352 272.1zM353.2 272.1zM354.5 272.1zM355.7 272.1zM357 272.1zM358.2 272.1zM359.4 272.1zM360.7 272.1zM361.9 272.1zM363.2 272.1zM364.4 272.1zM365.7 272.1zM365.7 272.1z"/><path fill="#FFF" d="M365.7 272.7h-65.8c-.3 0-.6-.3-.6-.6s.3-.6.6-.6h65.8c.3 0 .6.3.6.6s-.3.6-.6.6z"/></g><g><defs><path id="ao" d="M408.7 299.7H296.6"/></defs><use xlink:href="#ao" overflow="visible" fill="#FFF"/><clipPath id="ap"><use xlink:href="#ao" overflow="visible"/></clipPath><path clip-path="url(#ap)" fill="#FFF" d="M296.6 299.7zM298.7 299.7zM300.8 299.7zM302.9 299.7zM305.1 299.7zM307.2 299.7zM309.3 299.7zM311.4 299.7zM313.5 299.7zM315.6 299.7zM317.8 299.7zM319.9 299.7zM322 299.7zM324.1 299.7zM326.2 299.7zM328.3 299.7zM330.4 299.7zM332.6 299.7zM334.7 299.7zM336.8 299.7zM338.9 299.7zM341 299.7zM343.1 299.7zM345.2 299.7zM347.4 299.7zM349.5 299.7zM351.6 299.7zM353.7 299.7zM355.8 299.7zM357.9 299.7zM360.1 299.7zM362.2 299.7zM364.3 299.7zM366.4 299.7zM368.5 299.7zM370.6 299.7zM372.7 299.7zM374.9 299.7zM377 299.7zM379.1 299.7zM381.2 299.7zM383.3 299.7zM385.4 299.7zM387.6 299.7zM389.7 299.7zM391.8 299.7zM393.9 299.7zM396 299.7zM398.1 299.7zM400.2 299.7zM402.4 299.7zM404.5 299.7zM406.6 299.7zM408.7 299.7zM408.7 299.7z"/><path fill="#FFF" d="M408.7 300.3H296.6c-.3 0-.6-.3-.6-.6s.3-.6.6-.6h112.1c.3 0 .6.3.6.6s-.3.6-.6.6z"/></g><g><defs><path id="aq" d="M408.7 315.6H296.6"/></defs><use xlink:href="#aq" overflow="visible" fill="#FFF"/><clipPath id="ar"><use xlink:href="#aq" overflow="visible"/></clipPath><path clip-path="url(#ar)" fill="#FFF" d="M296.6 315.6zM298.7 315.6zM300.8 315.6zM302.9 315.6zM305.1 315.6zM307.2 315.6zM309.3 315.6zM311.4 315.6zM313.5 315.6zM315.6 315.6zM317.8 315.6zM319.9 315.6zM322 315.6zM324.1 315.6zM326.2 315.6zM328.3 315.6zM330.4 315.6zM332.6 315.6zM334.7 315.6zM336.8 315.6zM338.9 315.6zM341 315.6zM343.1 315.6zM345.2 315.6zM347.4 315.6zM349.5 315.6zM351.6 315.6zM353.7 315.6zM355.8 315.6zM357.9 315.6zM360.1 315.6zM362.2 315.6zM364.3 315.6zM366.4 315.6zM368.5 315.6zM370.6 315.6zM372.7 315.6zM374.9 315.6zM377 315.6zM379.1 315.6zM381.2 315.6zM383.3 315.6zM385.4 315.6zM387.6 315.6zM389.7 315.6zM391.8 315.6zM393.9 315.6zM396 315.6zM398.1 315.6zM400.2 315.6zM402.4 315.6zM404.5 315.6zM406.6 315.6zM408.7 315.6zM408.7 315.6z"/><path fill="#FFF" d="M408.7 316.2H296.6c-.3 0-.6-.3-.6-.6s.3-.6.6-.6h112.1c.3 0 .6.3.6.6 0 .4-.3.6-.6.6z"/></g><g><defs><path id="as" d="M408.7 331.5H296.6"/></defs><use xlink:href="#as" overflow="visible" fill="#FFF"/><clipPath id="at"><use xlink:href="#as" overflow="visible"/></clipPath><path clip-path="url(#at)" fill="#FFF" d="M296.6 331.5zM298.7 331.5zM300.8 331.5zM302.9 331.5zM305.1 331.5zM307.2 331.5zM309.3 331.5zM311.4 331.5zM313.5 331.5zM315.6 331.5zM317.8 331.5zM319.9 331.5zM322 331.5zM324.1 331.5zM326.2 331.5zM328.3 331.5zM330.4 331.5zM332.6 331.5zM334.7 331.5zM336.8 331.5zM338.9 331.5zM341 331.5zM343.1 331.5zM345.2 331.5zM347.4 331.5zM349.5 331.5zM351.6 331.5zM353.7 331.5zM355.8 331.5zM357.9 331.5zM360.1 331.5zM362.2 331.5zM364.3 331.5zM366.4 331.5zM368.5 331.5zM370.6 331.5zM372.7 331.5zM374.9 331.5zM377 331.5zM379.1 331.5zM381.2 331.5zM383.3 331.5zM385.4 331.5zM387.6 331.5zM389.7 331.5zM391.8 331.5zM393.9 331.5zM396 331.5zM398.1 331.5zM400.2 331.5zM402.4 331.5zM404.5 331.5zM406.6 331.5zM408.7 331.5zM408.7 331.5z"/><path fill="#FFF" d="M408.7 332.1H296.6c-.3 0-.6-.3-.6-.6s.3-.6.6-.6h112.1c.3 0 .6.3.6.6s-.3.6-.6.6z"/></g><g><defs><path id="au" d="M408.7 347.4H296.6"/></defs><use xlink:href="#au" overflow="visible" fill="#FFF"/><clipPath id="av"><use xlink:href="#au" overflow="visible"/></clipPath><path clip-path="url(#av)" fill="#FFF" d="M296.6 347.4zM298.7 347.4zM300.8 347.4zM302.9 347.4zM305.1 347.4zM307.2 347.4zM309.3 347.4zM311.4 347.4zM313.5 347.4zM315.6 347.4zM317.8 347.4zM319.9 347.4zM322 347.4zM324.1 347.4zM326.2 347.4zM328.3 347.4zM330.4 347.4zM332.6 347.4zM334.7 347.4zM336.8 347.4zM338.9 347.4zM341 347.4zM343.1 347.4zM345.2 347.4zM347.4 347.4zM349.5 347.4zM351.6 347.4zM353.7 347.4zM355.8 347.4zM357.9 347.4zM360.1 347.4zM362.2 347.4zM364.3 347.4zM366.4 347.4zM368.5 347.4zM370.6 347.4zM372.7 347.4zM374.9 347.4zM377 347.4zM379.1 347.4zM381.2 347.4zM383.3 347.4zM385.4 347.4zM387.6 347.4zM389.7 347.4zM391.8 347.4zM393.9 347.4zM396 347.4zM398.1 347.4zM400.2 347.4zM402.4 347.4zM404.5 347.4zM406.6 347.4zM408.7 347.4zM408.7 347.4z"/><path fill="#FFF" d="M408.7 348H296.6c-.3 0-.6-.3-.6-.6s.3-.6.6-.6h112.1c.3 0 .6.3.6.6s-.3.6-.6.6z"/></g><g><defs><path id="aw" d="M408.7 363.3H296.6"/></defs><use xlink:href="#aw" overflow="visible" fill="#FFF"/><clipPath id="ax"><use xlink:href="#aw" overflow="visible"/></clipPath><path clip-path="url(#ax)" fill="#FFF" d="M296.6 363.3zM298.7 363.3zM300.8 363.3zM302.9 363.3zM305.1 363.3zM307.2 363.3zM309.3 363.3zM311.4 363.3zM313.5 363.3zM315.6 363.3zM317.8 363.3zM319.9 363.3zM322 363.3zM324.1 363.3zM326.2 363.3zM328.3 363.3zM330.4 363.3zM332.6 363.3zM334.7 363.3zM336.8 363.3zM338.9 363.3zM341 363.3zM343.1 363.3zM345.2 363.3zM347.4 363.3zM349.5 363.3zM351.6 363.3zM353.7 363.3zM355.8 363.3zM357.9 363.3zM360.1 363.3zM362.2 363.3zM364.3 363.3zM366.4 363.3zM368.5 363.3zM370.6 363.3zM372.7 363.3zM374.9 363.3zM377 363.3zM379.1 363.3zM381.2 363.3zM383.3 363.3zM385.4 363.3zM387.6 363.3zM389.7 363.3zM391.8 363.3zM393.9 363.3zM396 363.3zM398.1 363.3zM400.2 363.3zM402.4 363.3zM404.5 363.3zM406.6 363.3zM408.7 363.3zM408.7 363.3z"/><path fill="#FFF" d="M408.7 363.9H296.6c-.3 0-.6-.3-.6-.6s.3-.6.6-.6h112.1c.3 0 .6.3.6.6s-.3.6-.6.6z"/></g><g><defs><path id="ay" d="M408.7 379.1H296.6"/></defs><use xlink:href="#ay" overflow="visible" fill="#FFF"/><clipPath id="az"><use xlink:href="#ay" overflow="visible"/></clipPath><path clip-path="url(#az)" fill="#FFF" d="M296.6 379.1zM298.7 379.1zM300.8 379.1zM302.9 379.1zM305.1 379.1zM307.2 379.1zM309.3 379.1zM311.4 379.1zM313.5 379.1zM315.6 379.1zM317.8 379.1zM319.9 379.1zM322 379.1zM324.1 379.1zM326.2 379.1zM328.3 379.1zM330.4 379.1zM332.6 379.1zM334.7 379.1zM336.8 379.1zM338.9 379.1zM341 379.1zM343.1 379.1zM345.2 379.1zM347.4 379.1zM349.5 379.1zM351.6 379.1zM353.7 379.1zM355.8 379.1zM357.9 379.1zM360.1 379.1zM362.2 379.1zM364.3 379.1zM366.4 379.1zM368.5 379.1zM370.6 379.1zM372.7 379.1zM374.9 379.1zM377 379.1zM379.1 379.1zM381.2 379.1zM383.3 379.1zM385.4 379.1zM387.6 379.1zM389.7 379.1zM391.8 379.1zM393.9 379.1zM396 379.1zM398.1 379.1zM400.2 379.1zM402.4 379.1zM404.5 379.1zM406.6 379.1zM408.7 379.1zM408.7 379.1z"/><path fill="#FFF" d="M408.7 379.7H296.6c-.3 0-.6-.3-.6-.6s.3-.6.6-.6h112.1c.3 0 .6.3.6.6 0 .4-.3.6-.6.6z"/></g></g><linearGradient id="aA" gradientUnits="userSpaceOnUse" x1="311.172" y1="225.854" x2="311.172" y2="265.04"><stop offset="0"/><stop offset=".995" stop-color="#001b48"/></linearGradient><path fill="url(#aA)" d="M324.2 250.4c-2.7 2.1-2.7 6.4-3 3.7v-.2c-.3-3.2-4.3.1-3.1-1.5 1.2-1.6 1.2-5.9 1.2-5.9-5.5 2.3-10.9 2-12.3 1.9h-.3c-20.6-5.1-5.2-20.6-5.2-20.6-1.3 6.5 5.8 10.1 10.7 9 4.9-1.1 7-2.3 9.9.2 2.8 2.5-.5 5.1 2.4 6.6 2.8 1.5 2.5 4.6-.3 6.8z"/><linearGradient id="aB" gradientUnits="userSpaceOnUse" x1="306.985" y1="253.395" x2="321.192" y2="253.395"><stop offset="0" stop-color="#ffdd94"/><stop offset="1" stop-color="#ff8a5a"/></linearGradient><path fill="url(#aB)" d="M321.2 254.1c-.5.9-1 1.8-1.6 2.5l-1.2 1.2c-1.8 1.6-4 2.4-5.8 2.6h-.4c-.9.1-1.7 0-2.2-.2-1.7-.6-2.7-8-3-11.8 1.3.1 6.8.4 12.3-1.9 0 0-.1 4.3-1.2 5.9-1.2 1.6 2.8-1.7 3.1 1.5v.2z"/><linearGradient id="aC" gradientUnits="userSpaceOnUse" x1="312.642" y1="260.917" x2="318.998" y2="260.917"><stop offset="0" stop-color="#ffdd94"/><stop offset="1" stop-color="#ff8a5a"/></linearGradient><path fill="url(#aC)" d="M319 261.8c0 .5-.1.9-.3 1.2-.8 1.4-5.2 1.6-5.5.5 0-.2-.1-.5-.2-.8-.1-.6-.2-1.6-.3-2.4 1.8-.2 3.9-1 5.8-2.6.2 1.3.6 2.9.5 4.1z"/><linearGradient id="aD" gradientUnits="userSpaceOnUse" x1="286.452" y1="258.316" x2="281.416" y2="307.822"><stop offset="0" stop-color="#f9a91e"/><stop offset="1" stop-color="#f37225"/></linearGradient><path fill="url(#aD)" d="M320.4 312.5l-21.7-2.2c0-.1 0-.1-.1-.2-3.1-7.8 3.3-33.9 3.3-33.9s-14.6.4-18-1.6c-3.4-2.1-40.4-20-40.4-20s.1-.2.2-.5.3-.6.4-1c.6-1.2 1.4-2.7 2.3-3.2.3-.1.5-.2.8-.1 1.9.4 38.4 15.2 38.4 15.2 7.5-.4 23.3-1.9 27.3-2.3.1.4.2.7.2.8.3 1 4.7.9 5.5-.5.2-.3.2-.7.3-1.2 18.2 2.3 1.9 49.6 1.5 50.7z"/><linearGradient id="aE" gradientUnits="userSpaceOnUse" x1="329.482" y1="277.706" x2="276.331" y2="281.371"><stop offset="0" stop-color="#5f3e7e"/><stop offset="1" stop-color="#b800b3"/></linearGradient><path opacity=".2" fill="url(#aE)" d="M298.7 310.3c0-.1 0-.1-.1-.2-3.1-7.8 3.3-33.9 3.3-33.9s-14.6.4-18-1.6c-3.4-2.1-40.4-20-40.4-20s.1-.2.2-.5.3-.6.4-1c8.3 4.4 35.4 18.6 39.6 20.2 5 1.9 17.8 4.2 23.1-5.2-.1.4-8.8 19.2-8.1 42.2z"/><linearGradient id="aF" gradientUnits="userSpaceOnUse" x1="295.742" y1="275.508" x2="318.959" y2="299.34"><stop offset="0" stop-color="#f9a91e"/><stop offset="1" stop-color="#f37225"/></linearGradient><path fill="url(#aF)" d="M322.9 304.5c-4.2 2.2-36.6 1.7-36.6 1.7s-.1-.7-.1-1.6v-.1c-.1-1.4-.1-3.3.3-4.4.2-.6.5-1 1.1-.9 2.1.3 27.4-1.2 28.8-3.5 1.4-2.3 2.5-18.5 4.6-25.2 1.3-4.2 3-4.7 4.1-4.6.7.1 1.1.5 1.1.5 7 5.1.3 36.2-3.3 38.1z"/><linearGradient id="aG" gradientUnits="userSpaceOnUse" x1="363.263" y1="345.078" x2="167.018" y2="420.669"><stop offset="0" stop-color="#41466b"/><stop offset="1" stop-color="#37313b"/></linearGradient><path fill="url(#aG)" d="M334.2 415.9h-8.5l-13.6-65.3-2.1-10.1-5.2 76h-7.9s-3.4-41.8-3-60.4c.3-15.7 3.5-40.4 4.9-45.8 1.2.1 2.5.2 3.8.4 8.1.8 17.9 1.8 17.9 1.8 1.7 7.2 6.4 28.5 8.6 43.8 2.5 18.6 5.1 59.6 5.1 59.6z"/><linearGradient id="aH" gradientUnits="userSpaceOnUse" x1="296.688" y1="418.205" x2="305.596" y2="418.205"><stop offset="0" stop-color="#ffdd94"/><stop offset="1" stop-color="#ff8a5a"/></linearGradient><path fill="url(#aH)" d="M305.6 419.5c-4 .7-7.5.1-8.9-.5.1-.3 1.2-1.4 1.2-2.5h6.5c.2 1.2.6 2.5 1.2 3z"/><linearGradient id="aI" gradientUnits="userSpaceOnUse" x1="326.032" y1="417.206" x2="334.872" y2="417.206"><stop offset="0" stop-color="#ffdd94"/><stop offset="1" stop-color="#ff8a5a"/></linearGradient><path fill="url(#aI)" d="M334.9 418c-.6.4-1.4.4-3.1.5-2.4.1-4.1.3-5.8-.7.1-.6.5-1.2.5-1.8h6.8c.9-.1 1.4 1.5 1.6 2z"/><linearGradient id="aJ" gradientUnits="userSpaceOnUse" x1="232.395" y1="248.281" x2="246.498" y2="248.281"><stop offset="0" stop-color="#ffdd94"/><stop offset="1" stop-color="#ff8a5a"/></linearGradient><path fill="url(#aJ)" d="M246.5 249.9c-1.2.6-2.3 3.1-2.7 4.2-1.8-.6-4.2-1.6-5.1-2.5-1.4-1.5-.9-3.3-2.5-4.6-1.5-1.3-5.2-4.3-3.3-4.6 1.9-.3 7.3 2.6 10.2 4.5 1.8 1.3 2.9 2.3 3.4 3z"/><path fill="none" stroke="#F2F2F2" stroke-miterlimit="10" d="M305.9 311s-4.7 42.4-5.8 46.6c-1.1 4.2 1.1 58.9 1.1 58.9"/><linearGradient id="aK" gradientUnits="userSpaceOnUse" x1="249.803" y1="294.675" x2="286.534" y2="294.675"><stop offset="0" stop-color="#e6e6e6"/><stop offset="1" stop-color="#ccc"/></linearGradient><path fill="url(#aK)" d="M285.6 310l-25.2.7h-.3c-.3-.1-.5-.3-.6-.6l-9.7-30.1c-.2-.6.3-1.2.9-1.2h24.7c.4 0 .8.2.9.6 1.4 3.8 8.6 24.2 10.2 29.4.2.5-.3 1.1-.9 1.2z"/><linearGradient id="aL" gradientUnits="userSpaceOnUse" x1="323.375" y1="264.046" x2="323.055" y2="264.046"><stop offset="0" stop-color="#5f3e7e"/><stop offset="1" stop-color="#b800b3"/></linearGradient><path fill="url(#aL)" d="M323.3 264.1h-.2s.1-.1.2 0z"/><linearGradient id="aM" gradientUnits="userSpaceOnUse" x1="350.161" y1="286.12" x2="266.569" y2="286.12"><stop offset="0" stop-color="#5f3e7e"/><stop offset="1" stop-color="#b800b3"/></linearGradient><path opacity=".2" fill="url(#aM)" d="M322.9 304.5c-4.2 2.2-36.6 1.7-36.6 1.7s-.1-.7-.1-1.6c8.5 0 29.6 0 33.4-1.9 4.8-2.3 5.5-12.5 6.4-25.6.5-6.2-.2-9.5-1-11.3.7.1 1.1.5 1.1.5 7.1 5.2.4 36.3-3.2 38.2z"/><linearGradient id="aN" gradientUnits="userSpaceOnUse" x1="270.832" y1="275.523" x2="274.717" y2="328.69"><stop offset="0" stop-color="#e6e6e6"/><stop offset="1" stop-color="#ccc"/></linearGradient><path opacity=".22" fill="url(#aN)" d="M285.6 310l-25.2.7h-.3c8.5-10.5 12.9-26.6 14.2-31.9h1.1c.4 0 .8.2.9.6 1.4 3.8 8.6 24.2 10.2 29.4.2.5-.3 1.1-.9 1.2z"/><linearGradient id="aO" gradientUnits="userSpaceOnUse" x1="275.458" y1="299.984" x2="286.48" y2="299.984"><stop offset="0" stop-color="#ffdd94"/><stop offset="1" stop-color="#ff8a5a"/></linearGradient><path fill="url(#aO)" d="M286.2 304.6c-2.2-.4-5.3-1-7.8-1.2-4.2-.3-2.9-5.5-2-7.3.9-1.7 3 .1 4.9 1.7 1.2 1 3.7 1.9 5.2 2.3-.4 1.2-.4 3.1-.3 4.5z"/><g><linearGradient id="aP" gradientUnits="userSpaceOnUse" x1="611.3" y1="416.908" x2="611.3" y2="425.54" gradientTransform="matrix(-1 0 0 1 906.19 0)"><stop offset="0" stop-color="#41466b"/><stop offset="1" stop-color="#37313b"/></linearGradient><path fill="url(#aP)" d="M283.3 424.8c.2.4.6.7.8.8.2.1.4.2.5.2h20.6c2.8-3.9.2-7.1.2-7.1-6.7 2.8-7.5-.8-8.3-1.1h-.1c-.1 0-.2 0-.4.1-.5.1-1.5.4-2.6.8.4.6.9 1.5.3 1.8-.6.3-1.3-.6-1.7-1.3l-.6.3c.4.6.9 1.5.3 1.8-.6.3-1.3-.6-1.7-1.2-.2.1-.5.2-.7.3.4.6.9 1.5.3 1.8-.6.3-1.3-.6-1.7-1.2-1.5.7-2.9 1.3-3.9 1.9-1.5.7-1.6 1.5-1.3 2.1z"/><linearGradient id="aQ" gradientUnits="userSpaceOnUse" x1="611.625" y1="418.852" x2="613.055" y2="419.845" gradientTransform="matrix(-1 0 0 1 906.19 0)"><stop offset="0" stop-color="#dad4f4"/><stop offset="1" stop-color="#b3b3b3"/></linearGradient><path fill="url(#aQ)" d="M292.7 418.9c.4.6 1.1 1.6 1.7 1.3.6-.3.1-1.2-.3-1.8-.5.2-.9.3-1.4.5z"/><linearGradient id="aR" gradientUnits="userSpaceOnUse" x1="613.677" y1="419.717" x2="615.122" y2="420.589" gradientTransform="matrix(-1 0 0 1 906.19 0)"><stop offset="0" stop-color="#dad4f4"/><stop offset="1" stop-color="#b3b3b3"/></linearGradient><path fill="url(#aR)" d="M290.6 419.7c.4.6 1.1 1.5 1.7 1.2.6-.3.1-1.2-.3-1.8-.4.3-.9.4-1.4.6z"/><linearGradient id="aS" gradientUnits="userSpaceOnUse" x1="618.852" y1="422.257" x2="615.28" y2="420.466" gradientTransform="matrix(-1 0 0 1 906.19 0)"><stop offset="0" stop-color="#dad4f4"/><stop offset="1" stop-color="#b3b3b3"/></linearGradient><path fill="url(#aS)" d="M288.6 420.6c.4.6 1.1 1.5 1.7 1.2.6-.3.1-1.2-.3-1.8-.5.2-1 .4-1.4.6z"/><linearGradient id="aT" gradientUnits="userSpaceOnUse" x1="611.231" y1="416.908" x2="611.231" y2="425.54" gradientTransform="matrix(-1 0 0 1 906.19 0)"><stop offset="0" stop-color="#3f466a"/><stop offset="1" stop-color="#302a34"/></linearGradient><path fill="url(#aT)" d="M283.3 424.8c.2.4.6.7.8.8.2.1.4.2.5.2h20.6c2.8-3.9.2-7.1.2-7.1-6.7 2.8-7.5-.8-8.3-1.1h-.1c-.1 0-.2 0-.4.1 1.2 1.7 3.1 5.1 0 6.4-3.2 1.3-9.9 1.3-13.3.7z"/><linearGradient id="aU" gradientUnits="userSpaceOnUse" x1="624.793" y1="424.063" x2="624.793" y2="424.2" gradientTransform="matrix(-1 0 0 1 906.19 0)"><stop offset="0" stop-color="#41466b"/><stop offset="1" stop-color="#37313b"/></linearGradient><path fill="url(#aU)" d="M281.3 424.1c.1.1.1.1.2.1-.1-.1-.2-.1-.2-.1z"/></g><g><linearGradient id="aV" gradientUnits="userSpaceOnUse" x1="147.64" y1="420" x2="147.64" y2="427.411"><stop offset="0" stop-color="#41466b"/><stop offset="1" stop-color="#37313b"/></linearGradient><path fill="url(#aV)" d="M157.5 426.7c-.2.3-.5.6-.7.7-.1.1-.3.1-.5.1h-17.6c-2.4-3.3-.2-6.1-.2-6.1.1 0 .2.1.2.1 4.8 1.9 6-.1 6.6-.8.1-.1.2-.2.3-.2h.4c.5.1 1.3.4 2.3.7 0 0 0 .1-.1.1 0 0 0 .1-.1.1l-.1.1c0 .1-.1.1-.1.2-.1.2-.1.3-.2.5v.4c0 .1.1.1.2.2h.2c.2 0 .4-.1.6-.3l.1-.1c.2-.2.4-.5.5-.8.2.1.4.1.6.2-.2.2-.4.6-.5.9-.1.3-.1.5.2.7.1.1.3.1.4 0 .1 0 .1 0 .2-.1l.3-.3.1-.1c.2-.2.3-.4.4-.6.2.1.4.2.6.2 0 .1-.1.1-.1.2s-.1.1-.1.2v.1c0 .1-.1.1-.1.2v.1c-.1.3-.1.5.2.7h.5c.3-.1.5-.4.7-.7 0-.1.1-.1.1-.2 0 0 0-.1.1-.1v-.1c.2.1.3.1.5.2.4.2.7.3 1 .5.7.3 1.4.7 1.9.9 1.4 1 1.5 1.7 1.2 2.2z"/><linearGradient id="aW" gradientUnits="userSpaceOnUse" x1="1086.633" y1="421.671" x2="1087.858" y2="422.521" gradientTransform="translate(-938.718)"><stop offset="0" stop-color="#dad4f4"/><stop offset="1" stop-color="#b3b3b3"/></linearGradient><path fill="url(#aW)" d="M149.5 421.7c-.3.6-.9 1.3-1.5 1.1-.6-.3-.1-1.1.3-1.5.4.1.8.3 1.2.4z"/><linearGradient id="aX" gradientUnits="userSpaceOnUse" x1="1088.388" y1="422.413" x2="1089.623" y2="423.159" gradientTransform="translate(-938.718)"><stop offset="0" stop-color="#dad4f4"/><stop offset="1" stop-color="#b3b3b3"/></linearGradient><path fill="url(#aX)" d="M151.3 422.4c-.3.5-.9 1.3-1.4 1-.5-.2-.1-1 .2-1.5.4.2.8.4 1.2.5z"/><linearGradient id="aY" gradientUnits="userSpaceOnUse" x1="1092.812" y1="424.589" x2="1089.759" y2="423.058" gradientTransform="translate(-938.718)"><stop offset="0" stop-color="#dad4f4"/><stop offset="1" stop-color="#b3b3b3"/></linearGradient><path fill="url(#aY)" d="M153 423.2c-.3.5-.9 1.3-1.4 1-.5-.3-.1-1.1.3-1.5.3.1.7.3 1.1.5z"/><linearGradient id="aZ" gradientUnits="userSpaceOnUse" x1="147.582" y1="420" x2="147.582" y2="427.411"><stop offset="0" stop-color="#3f466a"/><stop offset="1" stop-color="#302a34"/></linearGradient><path fill="url(#aZ)" d="M157.5 426.7c-.2.3-.5.6-.7.7-.1.1-.3.1-.5.1h-17.6c-2.4-3.3-.2-6.1-.2-6.1.1 0 .2.1.2.1 4.8 1.9 6-.1 6.6-.8.1-.1.2-.2.3-.2h.4c-.1.2-.2.3-.4.5-1 1.5-2 3.9.3 4.9.8.3 1.8.6 2.9.7 1.8.3 3.8.3 5.6.2h.8c1 .1 1.7.1 2.3-.1z"/><linearGradient id="ba" gradientUnits="userSpaceOnUse" x1="1097.89" y1="426.143" x2="1097.89" y2="426.261" gradientTransform="translate(-938.718)"><stop offset="0" stop-color="#41466b"/><stop offset="1" stop-color="#37313b"/></linearGradient><path fill="url(#ba)" d="M159.2 426.2l-.1.1.1-.1z"/></g><g><linearGradient id="bb" gradientUnits="userSpaceOnUse" x1="127.087" y1="417.199" x2="127.087" y2="428.254"><stop offset="0" stop-color="#41466b"/><stop offset="1" stop-color="#37313b"/></linearGradient><path fill="url(#bb)" d="M136.3 428c-.2.3-.6.4-.9.5-.2.1-.3.1-.5 0l-17-4.6c-1.4-3.8 1.4-5.9 1.4-5.9.1.1.1.1.2.1h.1c4.1 3.1 5.7 1.4 6.6.9.1-.1.2-.1.3-.1h.1c.1 0 .2.1.3.1.4.2 1.1.7 2 1.3l-.1.1-.1.1-.1.1-.1.1-.1.1c-.1.1-.1.2-.2.2v.5c0 .1.1.2.1.2s.1 0 .1.1H128.7c.1 0 .3-.1.4-.1 0 0 .1 0 .1-.1 0 0 .1 0 .1-.1 0 0 .1 0 .1-.1 0 0 .1 0 .1-.1.1 0 .1-.1.2-.1l.1-.1c.1 0 .1-.1.1-.1.2.1.3.2.5.4-.1 0-.1.1-.2.1l-.1.1-.1.1-.1.1-.1.1-.1.1v.4c0 .1 0 .2.1.3 0 0 .1 0 .1.1H130.7l.1-.1c.2-.1.5-.3.7-.5.2.1.3.3.5.4-.1.1-.2.2-.3.2l-.1.1-.1.1c-.1.1-.1.2-.2.3V423.6c0 .1 0 .1.1.2l.1.1h.5c.1 0 .2-.1.3-.2 0 0 .1 0 .1-.1.1 0 .1-.1.2-.1l.1-.1.3-.3c.1.1.3.2.4.3.2.2.5.4.7.6l.1.1c.6.5 1.1 1 1.6 1.4 1 1.4.9 2.1.5 2.5z"/><linearGradient id="bc" gradientUnits="userSpaceOnUse" x1="380.137" y1="412.146" x2="381.361" y2="412.996" gradientTransform="rotate(15.182 222.66 -528.128)"><stop offset="0" stop-color="#dad4f4"/><stop offset="1" stop-color="#b3b3b3"/></linearGradient><path fill="url(#bc)" d="M129.9 421.1c-.5.4-1.2 1.1-1.7.7-.5-.4.2-1 .7-1.4.3.2.7.4 1 .7z"/><linearGradient id="bd" gradientUnits="userSpaceOnUse" x1="381.892" y1="412.889" x2="383.127" y2="413.635" gradientTransform="rotate(15.182 222.66 -528.128)"><stop offset="0" stop-color="#dad4f4"/><stop offset="1" stop-color="#b3b3b3"/></linearGradient><path fill="url(#bd)" d="M131.4 422.2c-.5.4-1.2 1-1.6.6-.5-.4.2-1 .6-1.4.3.3.7.5 1 .8z"/><linearGradient id="be" gradientUnits="userSpaceOnUse" x1="386.315" y1="415.064" x2="383.262" y2="413.533" gradientTransform="rotate(15.182 222.66 -528.128)"><stop offset="0" stop-color="#dad4f4"/><stop offset="1" stop-color="#b3b3b3"/></linearGradient><path fill="url(#be)" d="M132.9 423.4c-.5.4-1.2 1-1.6.6-.5-.4.2-1 .7-1.4.3.2.6.5.9.8z"/><linearGradient id="bf" gradientUnits="userSpaceOnUse" x1="126.954" y1="417.199" x2="126.954" y2="428.254"><stop offset="0" stop-color="#3f466a"/><stop offset="1" stop-color="#302a34"/></linearGradient><path fill="url(#bf)" d="M136.3 428c-.2.3-.6.4-.9.5-.2.1-.3.1-.5 0l-17-4.6c-1.4-3.8 1.4-5.9 1.4-5.9.1.1.1.1.2.1h.1c4.1 3.1 5.7 1.4 6.6.9.1-.1.2-.1.3-.1h.1c.1 0 .2.1.3.1-.1.1-.2.2-.4.3l-.1.1c-1.2 1.1-2.6 2.8-1.5 4.3.1.2.3.4.6.6.7.5 1.6 1 2.6 1.5 1.7.7 3.6 1.3 5.4 1.7.3.1.5.1.7.2.8.1 1.5.2 2.1.3z"/><linearGradient id="bg" gradientUnits="userSpaceOnUse" x1="391.394" y1="416.618" x2="391.394" y2="416.736" gradientTransform="rotate(15.182 222.66 -528.128)"><stop offset="0" stop-color="#41466b"/><stop offset="1" stop-color="#37313b"/></linearGradient><path fill="url(#bg)" d="M138.1 427.9c-.1 0-.1.1-.2.1l.2-.1z"/></g><g><linearGradient id="bh" gradientUnits="userSpaceOnUse" x1="-140.429" y1="448.352" x2="-140.429" y2="458.206" gradientTransform="matrix(-.9096 .2538 .2688 .9632 75.493 20.707)"><stop offset="0" stop-color="#41466b"/><stop offset="1" stop-color="#37313b"/></linearGradient><path fill="url(#bh)" d="M315 428.7c.3.4.8.6 1.1.7.2.1.4.1.6 0l19.9-5.6c1.5-5-2-7.9-2-7.9-5.6 4.9-7.5 1.2-8.4 1h-.1c-.1 0-.2.1-.4.2-.5.3-1.3.9-2.3 1.6.6.5 1.4 1.4.8 1.9-.5.5-1.5-.3-2-.9-.2.1-.4.3-.5.5.6.5 1.3 1.4.8 1.9s-1.4-.3-2-.9c-.2.2-.4.3-.6.5.6.5 1.4 1.4.8 1.9-.5.5-1.4-.3-2-.9-1.3 1.1-2.4 2.3-3.2 3.1-1.2 1.4-1 2.3-.5 2.9z"/><linearGradient id="bi" gradientUnits="userSpaceOnUse" x1="-140.127" y1="450.595" x2="-138.563" y2="451.68" gradientTransform="matrix(-.9096 .2538 .2688 .9632 75.493 20.707)"><stop offset="0" stop-color="#dad4f4"/><stop offset="1" stop-color="#b3b3b3"/></linearGradient><path fill="url(#bi)" d="M322.2 419.8c.6.6 1.5 1.4 2 .9.5-.5-.3-1.4-.8-1.9-.4.3-.8.6-1.2 1z"/><linearGradient id="bj" gradientUnits="userSpaceOnUse" x1="-137.927" y1="451.587" x2="-136.375" y2="452.524" gradientTransform="matrix(-.9096 .2538 .2688 .9632 75.493 20.707)"><stop offset="0" stop-color="#dad4f4"/><stop offset="1" stop-color="#b3b3b3"/></linearGradient><path fill="url(#bj)" d="M320.5 421.2c.6.6 1.5 1.4 2 .9.5-.5-.2-1.3-.8-1.9-.4.3-.8.6-1.2 1z"/><linearGradient id="bk" gradientUnits="userSpaceOnUse" x1="-132.403" y1="454.369" x2="-136.207" y2="452.462" gradientTransform="matrix(-.9096 .2538 .2688 .9632 75.493 20.707)"><stop offset="0" stop-color="#dad4f4"/><stop offset="1" stop-color="#b3b3b3"/></linearGradient><path fill="url(#bk)" d="M318.8 422.7c.6.6 1.5 1.4 2 .9.5-.5-.3-1.4-.8-1.9-.5.3-.8.6-1.2 1z"/><linearGradient id="bl" gradientUnits="userSpaceOnUse" x1="-140.502" y1="448.352" x2="-140.502" y2="458.206" gradientTransform="matrix(-.9096 .2538 .2688 .9632 75.493 20.707)"><stop offset="0" stop-color="#3f466a"/><stop offset="1" stop-color="#302a34"/></linearGradient><path fill="url(#bl)" d="M315 428.7c.3.4.8.6 1.1.7.2.1.4.1.6 0l19.9-5.6c1.5-5-2-7.9-2-7.9-5.6 4.9-7.5 1.2-8.4 1h-.1c-.1 0-.2.1-.4.2 1.7 1.5 4.6 4.7 2 7-2.8 2.5-9.3 4.3-12.7 4.6z"/><linearGradient id="bm" gradientUnits="userSpaceOnUse" x1="-126.055" y1="456.52" x2="-126.055" y2="456.676" gradientTransform="matrix(-.9096 .2538 .2688 .9632 75.493 20.707)"><stop offset="0" stop-color="#41466b"/><stop offset="1" stop-color="#37313b"/></linearGradient><path fill="url(#bm)" d="M312.8 428.5c.1.1.2.1.2.1-.1-.1-.2-.1-.2-.1z"/></g><linearGradient id="bn" gradientUnits="userSpaceOnUse" x1="312.025" y1="363.292" x2="335.304" y2="363.292"><stop offset="0" stop-color="#41466b"/><stop offset="1" stop-color="#37313b"/></linearGradient><path fill="url(#bn)" d="M334.2 415.9h-8.5l-13.6-65.3c-.5-4.6-3.5-7.9-4.4-9.7-3.8-8-6.3-23.7-5.2-30.2 8.1.8 17.9 1.8 17.9 1.8.6 2.8 3.1 7.7 4.4 13.6 2 9.2 2.9 20.8 4.2 30.2 2.6 18.6 5.2 59.6 5.2 59.6z"/><path fill="none" stroke="#F2F2F2" stroke-miterlimit="10" d="M313.5 311.8s6.4 34.2 7.5 39c1 4.8 9.1 65.1 9.1 65.1"/><linearGradient id="bo" gradientUnits="userSpaceOnUse" x1="115.022" y1="266.144" x2="141.742" y2="266.144"><stop offset="0"/><stop offset=".995" stop-color="#001b48"/></linearGradient><path fill="url(#bo)" d="M141.5 265.4c-.7 2.8-4.3 4.5-8 5.4-4.1 1-8.3 1.1-8.3 1.1-2.3-.8-.2 4.1-.2 4.1-4.8-.9-1.8 3.6-1.1 4.4l.1.1c-9.3 2.7-10.5-6.2-7.5-6.3 3-.1 1.9-2.4 1.9-2.4-4.9-7.9 7.7-9.4 9.6-9.8 1.9-.4-7.2-6.3.9-10 8.2-3.7 14 7.4 12.6 13.4z"/><linearGradient id="bp" gradientUnits="userSpaceOnUse" x1="198.88" y1="297.551" x2="120.981" y2="294.47"><stop offset="0" stop-color="#28d2e0"/><stop offset="1" stop-color="#2d6bd1"/></linearGradient><path fill="url(#bp)" d="M173.4 290.5l-.4 1.8-.2 4.1s-8.7 5-12.5 6.8c-3.8 1.8-6.5 2.8-6.5 2.8s-4.3.2-10-2.8c-.5-3.4-1.3-6.7-2.4-9.7-1.9-5-3.9-7.6-5.5-8.9 1.6.4 3.6 1.2 5.2 3 .1.1.2.2.2.3 3.5 4.2 12.7 10.2 12.7 10.2s17.2-5.8 19.4-7.6z"/><linearGradient id="bq" gradientUnits="userSpaceOnUse" x1="198.354" y1="297.53" x2="121.099" y2="294.475"><stop offset="0" stop-color="#ccabd8"/><stop offset="1" stop-color="#838bc5"/></linearGradient><path opacity=".2" fill="url(#bq)" d="M173 292.3l-.2 4.1s-8.7 5-12.5 6.8c-3.8 1.8-6.5 2.8-6.5 2.8s-4.3.2-10-2.8c-.5-3.4-1.3-6.7-2.4-9.7-1.9-5-3.9-7.6-5.5-8.9 1.6.4 3.6 1.2 5.2 3 .1 2 .5 4.6 1.6 5.3 1.9 1.2 3.5 2.6 4.2 6.6.7 4.1 6.5 4.4 8 2.5 1.5-1.9 3.5-2.6 6.5-2.3 3 .3 7.4-3.6 8.6-5.6.2-.7 1.5-1.3 3-1.8z"/><path fill="none" stroke="#F2F2F2" stroke-miterlimit="10" d="M141.1 293.9s7.3 7.8 12.1 8.1c4.8.2 19.9-8.9 19.9-8.9"/><linearGradient id="br" gradientUnits="userSpaceOnUse" x1="143.887" y1="276.305" x2="118.938" y2="276.305"><stop offset=".046" stop-color="#ffdd94"/><stop offset=".84" stop-color="#ff8a5a"/></linearGradient><path fill="url(#br)" d="M136.3 279.2c0 .3-.1.6-.3.7-.8.6-2.3 1.5-4.5 1.8-1.8.3-4.1.1-6.7-1-.3-.1-.6-.3-.9-.4-.6-.8-3.7-5.3 1.1-4.4 0 0-2.1-4.9.2-4.1 0 0 4.2-.1 8.3-1.2l.3.6c1.1 2.6 2.6 6.3 2.5 8z"/><linearGradient id="bs" gradientUnits="userSpaceOnUse" x1="135.495" y1="276.792" x2="124.603" y2="286.947"><stop offset="0" stop-color="#ffdd94"/><stop offset="1" stop-color="#ff8a5a"/></linearGradient><path fill="url(#bs)" d="M132.1 285.9c0 .4-4.8.8-5.7.4-.3-.1-.5-.7-.8-1.5-.4-1.2-.6-2.9-.8-4.1 2.6 1.1 4.9 1.2 6.7 1 .1.6.2 1.3.3 2 .1 1.1.3 2.1.3 2.2z"/><linearGradient id="bt" gradientUnits="userSpaceOnUse" x1="145.543" y1="306.205" x2="120.32" y2="306.696"><stop offset="0" stop-color="#28d2e0"/><stop offset="1" stop-color="#2d6bd1"/></linearGradient><path fill="url(#bt)" d="M144.1 329.1h-19.8s-3-2.9-4-15.7c-1.3-15.1-2.9-21.5 0-24.6.4-.5.9-.9 1.4-1.3 1.2-1.1 2.4-1.8 3.3-2.3.3-.2.6-.3.8-.4.2.8.5 1.4.8 1.5.9.4 5.7 0 5.7-.4 0-.2-.2-1.2-.3-2.3.1 0 .3-.1.4-.1.9-.1 2.1 0 3.5 1.1 1.7 1.3 3.6 3.9 5.5 8.9 1.1 2.9 1.9 6.3 2.4 9.7.6 3.7.8 7.6.9 11.1.1 8.3-.6 14.8-.6 14.8z"/><linearGradient id="bu" gradientUnits="userSpaceOnUse" x1="224.363" y1="300.921" x2="173.904" y2="300.593"><stop offset="0" stop-color="#916fbc"/><stop offset="1" stop-color="#6537a2"/></linearGradient><path fill="url(#bu)" d="M230 214.9l-5.7 17.7c-5.7 17.7-16.4 43.8-32.3 64.3-5.3 6.9-50.1 80.5-62.5 92.1-2.5 2.3-4.1 3.2-5 2.8-3.4-1.5 5.6-22.6 21-46.1 19.3-29.5 37.7-85.5 43.4-97.4 5.7-11.9 32.6-39.1 32.6-39.1h.3c2.6-.1 4.4.5 5.6 1.3 2 1.3 2.5 3.2 2.6 4v.4z"/><linearGradient id="bv" gradientUnits="userSpaceOnUse" x1="221.838" y1="300.863" x2="172.653" y2="300.543"><stop offset="0" stop-color="#e09a45"/><stop offset="1" stop-color="#e05d45"/></linearGradient><path opacity=".2" fill="url(#bv)" d="M227.4 210.6c-7.5 7.7-27.2 28.3-34.6 41.1-9.2 16-22.7 59.6-32.6 77-7.4 13.1-26.6 47-35.7 63.1-3.4-1.5 5.6-22.6 21-46.1 19.3-29.5 37.7-85.5 43.4-97.4 5.7-11.9 32.6-39.1 32.6-39.1h.3c2.6 0 4.3.6 5.6 1.4z"/><linearGradient id="bw" gradientUnits="userSpaceOnUse" x1="195.689" y1="303.777" x2="107.838" y2="303.777"><stop offset="0" stop-color="#28d2e0"/><stop offset="1" stop-color="#2d6bd1"/></linearGradient><path fill="url(#bw)" d="M176 301.9c-1.5 1.3-28.5 15.5-33.4 16.2-4.9.8-14.2-7.4-21.3-19.8-5.6-9.7 1.6-9.4 5.1-8.7.7.1 1.2.3 1.5.4.1.1.3.1.4.1 9.1 2.8 13.9 18.9 16.7 18.5 2.8-.4 27.8-11.1 27.8-11.1l.9 1.2 1.2 1.6.7 1 .4.6z"/><linearGradient id="bx" gradientUnits="userSpaceOnUse" x1="171.951" y1="391.592" x2="209.591" y2="391.592" gradientTransform="rotate(-1.049 -246.075 2844.021)"><stop offset="0" stop-color="#4d4d4d"/><stop offset="1" stop-color="#ccc"/></linearGradient><path fill="url(#bx)" d="M141.1 367.6C138.5 374.8 126 418 126 418l-.6-.1-5.4-.7s0-.3.1-.9c.5-3.6 2.6-16.7 4-20.8 1.7-4.8 6.1-44.8 6.1-44.8s13.4 9.7 10.9 16.9z"/><linearGradient id="by" gradientUnits="userSpaceOnUse" x1="118.761" y1="383.902" x2="132.684" y2="384.557"><stop offset="0" stop-color="#41466b"/><stop offset="1" stop-color="#37313b"/></linearGradient><path fill="url(#by)" d="M141.1 367.6C138.6 374.8 126 418 126 418h-.6l-5.4-.7s0-.3.1-.9c.5-3.6 2.6-16.7 4-20.8 1.7-4.8 6.1-44.8 6.1-44.8s13.4 9.6 10.9 16.8z"/><linearGradient id="bz" gradientUnits="userSpaceOnUse" x1="231.404" y1="182.45" x2="252.607" y2="182.45"><stop offset="0" stop-color="#fa897b"/><stop offset="1" stop-color="#ff1f33"/></linearGradient><path fill="url(#bz)" d="M252 193.6c-.7-1.7-1.4-3.8-1.6-5.9-.7-5.2-7 5.8-10.1 7.7-1.7 1.1-2.2.1-2-1.9.2-1.7 1-4.1 2.1-6.5 2.5-5.2-2.5-1.3-6.7-.9-1.7.2-2.2-1-2.3-2.5 7.6-3.9 16.4-6.2 16.1-14.6 0 0 .3.4.7 1.2 1.7 3.4 5.9 13 3.8 23.4z"/><path fill="none" stroke="#F2F2F2" stroke-miterlimit="10" d="M134.3 366.4s-4.3 20.4-6.2 27.7c-1.9 7.4-5.1 23.4-5.1 23.4"/><linearGradient id="bA" gradientUnits="userSpaceOnUse" x1="220.675" y1="199.103" x2="252.022" y2="199.103"><stop offset="0" stop-color="#e6e6e6"/><stop offset="1" stop-color="#ccc"/></linearGradient><path fill="url(#bA)" d="M252 193.6c-.5 2.4-1.3 4.9-2.6 7.3-6.3 11.9-15.6 13.6-19.5 13.7-.1-.8-.7-2.8-2.8-4.2-1.2-.7-2.9-1.2-5.3-1.2-1-4.2-2.9-15.1 3.1-21.2 1.8-1.8 4.1-3.2 6.5-4.5 0 1.5.6 2.6 2.3 2.5 4.2-.4 9.2-4.2 6.7.9-1.1 2.4-1.9 4.8-2.1 6.5-.2 1.9.3 2.9 2 1.9 3.1-2 9.4-12.9 10.1-7.7.2 2.3.9 4.3 1.6 6z"/><linearGradient id="bB" gradientUnits="userSpaceOnUse" x1="187.145" y1="295.126" x2="172.32" y2="297.829"><stop offset="0" stop-color="#ffdd94"/><stop offset="1" stop-color="#ff8a5a"/></linearGradient><path fill="url(#bB)" d="M182.7 296.4c-.4.6-1.6 1.6-2.9 2.5-1.5 1-3.1 2-4.2 2.4l-.2-.2-1.4-1.9-.3-.4c.2-.4.4-.8.5-1.1 0-.1.1-.2.1-.3.5-1.1 2.1-3.7 2.7-3.8.7-.1.5.7.7.5s1.4-2.1 2.7-1.8c1.4.5 3.3 2.5 2.3 4.1z"/><linearGradient id="bC" gradientUnits="userSpaceOnUse" x1="110.44" y1="374.719" x2="189.668" y2="374.719"><stop offset="0" stop-color="#41466b"/><stop offset="1" stop-color="#37313b"/></linearGradient><path fill="url(#bC)" d="M151.1 373.9c-.4 12.1-5.3 46.1-5.3 46.1h-.8l-2.9.2-3.1.2h-.5s.6-6.6 0-26.6-9.1-37.3-12.8-46.4c-2.9-7.2-1.8-15.1-1.3-18.2h19.2c3.7 10 7.8 33.6 7.5 44.7z"/><linearGradient id="bD" gradientUnits="userSpaceOnUse" x1="146.174" y1="417.74" x2="139.725" y2="422.469"><stop offset="0" stop-color="#ffdd94"/><stop offset="1" stop-color="#ff8a5a"/></linearGradient><path fill="url(#bD)" d="M145.4 420.8c-.7.7-1.8 2.8-6.6.8.1-.5.1-.9.1-1.3l6-.3c.2.3.3.5.5.8z"/><linearGradient id="bE" gradientUnits="userSpaceOnUse" x1="128.324" y1="417.164" x2="119.94" y2="419.099"><stop offset="0" stop-color="#ffdd94"/><stop offset="1" stop-color="#ff8a5a"/></linearGradient><path fill="url(#bE)" d="M126.2 419c-.9.6-2.5 2.2-6.6-.9l.3-.9 5.4.7h.3c.2.4.4.8.6 1.1z"/><linearGradient id="bF" gradientUnits="userSpaceOnUse" x1="113.992" y1="374.719" x2="172.007" y2="374.719"><stop offset="0" stop-color="#4d4d4d"/><stop offset="1" stop-color="#ccc"/></linearGradient><path opacity=".2" fill="url(#bF)" d="M143.4 405c-.7 6.7-1.2 11.7-1.4 15.2l-3.1.2h-.5s.6-6.6 0-26.6-9.1-37.3-12.8-46.4c-2.9-7.2-1.8-15.1-1.3-18.2h11.3c-.1 5.8 0 16.6 1.8 23.7 2.6 10.1 7.7 37.5 6 52.1z"/><linearGradient id="bG" gradientUnits="userSpaceOnUse" x1="220.675" y1="189.719" x2="248.956" y2="189.719"><stop offset="0" stop-color="#e6e6e6"/><stop offset="1" stop-color="#ccc"/></linearGradient><path opacity=".3" fill="url(#bG)" d="M247 185.6c-1.9 3.4-5.2 5.3-8.7 8-4.2 3.2-8.6 7.4-11.2 16.8-1.2-.7-2.9-1.2-5.3-1.2-1-4.2-2.9-15.1 3.1-21.2 1.8-1.8 4.1-3.2 6.5-4.5 7.6-3.9 16.4-6.2 16.1-14.6 0 0 .3.4.7 1.2.9 4.2 1.5 10.6-1.2 15.5z"/><path fill="none" stroke="#F2F2F2" stroke-miterlimit="10" d="M135 329.2s1.4 22.3 3.3 29.2 6.5 13.3 5.9 23.3c-.6 10-1.8 38.3-1.8 38.3"/><linearGradient id="bH" gradientUnits="userSpaceOnUse" x1="151.924" y1="288.43" x2="139.109" y2="313.202"><stop offset="0" stop-color="#ccabd8"/><stop offset="1" stop-color="#838bc5"/></linearGradient><path opacity=".4" fill="url(#bH)" d="M176 301.9c-1.5 1.3-28.5 15.5-33.4 16.2-4.9.8-14.2-7.4-21.3-19.8-5.6-9.7 1.6-9.4 5.1-8.7-.7.9-1.1 2.2-.4 4.1 1.8 5.2 6.3 2 6.1 7.6-.2 5.6 3.4 12.8 7.5 11.6 4.1-1.2 5.5 3.7 10.1 0s7.6-5.4 11.3-5.1c3.7.3 8.3-3 9.6-5.5.7-1.3 2.6-1.8 4.2-2l.7 1 .5.6z"/><linearGradient id="bI" gradientUnits="userSpaceOnUse" x1="133.25" y1="285.524" x2="125.323" y2="285.678"><stop offset="0" stop-color="#ccabd8"/><stop offset="1" stop-color="#838bc5"/></linearGradient><path opacity=".5" fill="url(#bI)" d="M132.8 286.3c-.4.8-4.3 1.5-5.9 1.3-1.3-.1-1.8-1.7-2-2.3.3-.2.6-.3.8-.4.2.8.5 1.4.8 1.5.9.4 5.7 0 5.7-.4 0-.2-.2-1.2-.3-2.3.1 0 .3-.1.4-.1.4.8.8 1.9.5 2.7z"/><path fill="none" stroke="#F2F2F2" stroke-miterlimit="10" d="M122.5 289.4s14.2 26.3 22.1 24.5c7.9-1.8 29.4-14.6 29.4-14.6"/><g><linearGradient id="bJ" gradientUnits="userSpaceOnUse" x1="84.427" y1="174.059" x2="142.153" y2="174.059"><stop offset="0" stop-color="#3da3e2"/><stop offset="1" stop-color="#3d64e2"/></linearGradient><circle fill="url(#bJ)" cx="113.3" cy="174.1" r="28.9"/><linearGradient id="bK" gradientUnits="userSpaceOnUse" x1="152.888" y1="174.227" x2="81.394" y2="174.227"><stop offset="0" stop-color="#3da3e2"/><stop offset="1" stop-color="#3d64e2"/></linearGradient><circle fill="url(#bK)" cx="113.5" cy="174.2" r="25.1"/><path fill="#E1EBFF" d="M95.1 170.3s15 12.4 17.6 19c0 0 9.8-25.1 18.7-30.6 0 0-16.9 7.3-19 21.7.1.1-9.8-11.5-17.3-10.1z"/></g><linearGradient id="bL" gradientUnits="userSpaceOnUse" x1="182.162" y1="298.052" x2="173.118" y2="299.701"><stop offset="0" stop-color="#ffdd94"/><stop offset="1" stop-color="#ff8a5a"/></linearGradient><path opacity=".4" fill="url(#bL)" d="M179.8 298.9c-1.5 1-3.1 2-4.2 2.4l-.2-.2-1.4-1.9-.3-.4c.2-.4.4-.8.5-1.1 0-.1.1-.2.1-.3.1.5.2 1.1.5 1.6.6 1.1 1.7 1.1 3.6.4.5-.1 1-.3 1.4-.5z"/><path fill-rule="evenodd" clip-rule="evenodd" fill="#3995D3" d="M351.1 396.5c-.5-1.2-.7-2.5-.7-3.9s.2-2.7.7-3.9c.1-.2.1-.4.2-.5 1.1-2.5 3.1-4.5 5.6-5.6.2-.1.4-.2.5-.2 1.2-.5 2.5-.7 3.9-.7s2.7.2 3.9.7c.2.1.4.2.7.3 2.4 1.1 4.4 3 5.5 5.5.1.2.2.4.3.7.5 1.2.7 2.5.7 3.9s-.2 2.7-.7 3.9c-.1.2-.2.5-.3.7-1.1 2.4-3 4.4-5.5 5.5-.2.1-.4.2-.7.3-1.2.5-2.5.7-3.9.7s-2.7-.2-3.9-.7c-.2-.1-.5-.2-.7-.3-2.4-1.1-4.4-3-5.5-5.5.1-.4 0-.7-.1-.9zm-11.6 0h3.9c.2 0 .3.1.4.3.5 1.9 1.2 3.7 2.2 5.3.1.2.1.4-.1.5l-2.8 2.8c-.2.2-.2.4 0 .6l4.9 4.9c.2.2.4.2.6 0l2.8-2.8c.1-.1.3-.2.5-.1 1.6 1 3.4 1.8 5.3 2.2.2 0 .3.2.3.4v3.9c0 .2.2.4.4.4h6.9c.2 0 .4-.2.4-.4v-3.9c0-.2.1-.3.3-.4 1.9-.5 3.7-1.2 5.3-2.2.2-.1.4-.1.5.1l2.8 2.8c.2.2.4.2.6 0l4.9-4.9c.2-.2.2-.4 0-.6l-2.8-2.8c-.1-.1-.2-.3-.1-.5 1-1.6 1.8-3.4 2.2-5.3 0-.2.2-.3.4-.3h3.9c.2 0 .4-.2.4-.4v-6.9c0-.2-.2-.4-.4-.4h-3.9c-.2 0-.3-.1-.4-.3-.5-1.9-1.2-3.7-2.2-5.3-.1-.2-.1-.4.1-.5l2.8-2.8c.2-.2.2-.4 0-.6l-4.9-4.9c-.2-.2-.4-.2-.6 0l-2.8 2.8c-.1.1-.3.2-.5.1-1.6-1-3.4-1.8-5.3-2.2-.2 0-.3-.2-.3-.4v-3.9c0-.2-.2-.4-.4-.4h-6.9c-.2 0-.4.2-.4.4v3.9c0 .2-.1.3-.3.4-1.9.5-3.7 1.2-5.3 2.2-.2.1-.4.1-.5-.1l-2.8-2.8c-.2-.2-.4-.2-.6 0l-4.9 4.9c-.2.2-.2.4 0 .6l2.8 2.8c.1.1.2.3.1.5-1 1.6-1.8 3.4-2.2 5.3 0 .2-.2.3-.4.3h-3.9c-.2 0-.4.2-.4.4v6.9c0 .2.2.4.4.4z"/><path fill-rule="evenodd" clip-rule="evenodd" fill="#C5EBF9" d="M86 237.7c-.3-.8-.5-1.7-.5-2.6 0-.9.2-1.8.5-2.6 0-.1.1-.2.1-.4.7-1.7 2.1-3 3.8-3.8.1-.1.2-.1.4-.1.8-.3 1.7-.5 2.6-.5.9 0 1.8.2 2.6.5.2.1.3.1.4.2 1.6.7 2.9 2 3.7 3.7.1.1.1.3.2.4.3.8.5 1.7.5 2.6 0 .9-.2 1.8-.5 2.6-.1.2-.1.3-.2.4-.7 1.6-2 2.9-3.7 3.7-.1.1-.3.1-.4.2-.8.3-1.7.5-2.6.5-.9 0-1.8-.2-2.6-.5-.2-.1-.3-.1-.5-.2-1.6-.7-2.9-2-3.7-3.7 0-.1-.1-.3-.1-.4zm-7.8 0h2.6c.1 0 .2.1.3.2.3 1.3.8 2.5 1.5 3.5.1.1.1.2 0 .3l-1.9 1.9c-.1.1-.1.3 0 .4l3.3 3.3c.1.1.3.1.4 0l1.9-1.9c.1-.1.2-.1.3 0 1.1.7 2.3 1.2 3.6 1.5.1 0 .2.1.2.3v2.6c0 .1.1.3.3.3h4.6c.1 0 .3-.1.3-.3v-2.6c0-.1.1-.2.2-.3 1.3-.3 2.5-.8 3.5-1.5.1-.1.2-.1.3 0l1.9 1.9c.1.1.3.1.4 0l3.3-3.3c.1-.1.1-.3 0-.4l-1.9-1.9c-.1-.1-.1-.2 0-.3.7-1.1 1.2-2.3 1.5-3.6 0-.1.1-.2.3-.2h2.6c.1 0 .3-.1.3-.3v-4.6c0-.1-.1-.3-.3-.3h-2.6c-.1 0-.2-.1-.3-.2-.3-1.3-.8-2.5-1.5-3.6-.1-.1-.1-.2 0-.3l1.9-1.9c.1-.1.1-.3 0-.4l-3.3-3.3c-.1-.1-.3-.1-.4 0l-1.9 1.9c-.1.1-.2.1-.3 0-1.1-.7-2.3-1.2-3.5-1.5-.1 0-.2-.1-.2-.3v-2.6c0-.1-.1-.3-.3-.3h-4.6c-.1 0-.3.1-.3.3v2.6c0 .1-.1.2-.2.3-1.3.3-2.5.8-3.5 1.5-.1.1-.2.1-.3 0l-1.9-1.9c-.1-.1-.3-.1-.4 0l-3.3 3.3c-.1.1-.1.3 0 .4l1.9 1.9c.1.1.1.2 0 .3-.7 1.1-1.2 2.3-1.5 3.5 0 .1-.1.2-.3.2h-2.6c-.1 0-.3.1-.3.3v4.6c-.1.4 0 .5.2.5z"/><path fill-rule="evenodd" clip-rule="evenodd" fill="#F7D48D" d="M335 170.1c-.2-.5-.3-1-.3-1.5s.1-1.1.3-1.5c0-.1.1-.1.1-.2.4-1 1.3-1.8 2.3-2.3.1 0 .1-.1.2-.1.5-.2 1-.3 1.5-.3s1.1.1 1.5.3c.1 0 .2.1.3.1 1 .4 1.7 1.2 2.2 2.2 0 .1.1.2.1.3.2.5.3 1 .3 1.5s-.1 1.1-.3 1.5c0 .1-.1.2-.1.3-.4 1-1.2 1.7-2.2 2.2-.1 0-.2.1-.3.1-.5.2-1 .3-1.5.3s-1.1-.1-1.5-.3c-.1 0-.2-.1-.3-.1-1-.4-1.7-1.2-2.2-2.2 0-.1 0-.2-.1-.3zm-4.6 0h1.6c.1 0 .1.1.2.1.2.8.5 1.5.9 2.1v.2l-1.1 1.1c-.1.1-.1.2 0 .2l2 2c.1.1.2.1.2 0l1.1-1.1c.1-.1.1-.1.2 0 .6.4 1.4.7 2.1.9.1 0 .1.1.1.2v1.6c0 .1.1.2.2.2h2.8c.1 0 .2-.1.2-.2v-1.6c0-.1.1-.1.1-.2.8-.2 1.5-.5 2.1-.9h.2l1.1 1.1c.1.1.2.1.2 0l2-2c.1-.1.1-.2 0-.2l-1.1-1.1c-.1-.1-.1-.1 0-.2.4-.6.7-1.4.9-2.1 0-.1.1-.1.2-.1h1.6c.1 0 .2-.1.2-.2v-2.8c0-.1-.1-.2-.2-.2h-1.6c-.1 0-.1-.1-.2-.1-.2-.8-.5-1.5-.9-2.1v-.2l1.1-1.1c.1-.1.1-.2 0-.2l-2-2c-.1-.1-.2-.1-.2 0l-1.1 1.1c-.1.1-.1.1-.2 0-.6-.4-1.4-.7-2.1-.9-.1 0-.1-.1-.1-.2v-1.6c0-.1-.1-.2-.2-.2h-2.8c-.1 0-.2.1-.2.2v1.6c0 .1-.1.1-.1.2-.8.2-1.5.5-2.1.9h-.2l-1.1-1.1c-.1-.1-.2-.1-.2 0l-2 2c-.1.1-.1.2 0 .2l1.1 1.1c.1.1.1.1 0 .2-.4.6-.7 1.4-.9 2.1 0 .1-.1.1-.2.1h-1.6c-.1 0-.2.1-.2.2v2.8c0 .1.1.2.2.2zM185 145.1c-.2-.5-.3-1-.3-1.5s.1-1.1.3-1.5c0-.1.1-.1.1-.2.4-1 1.3-1.8 2.3-2.3.1 0 .1-.1.2-.1.5-.2 1-.3 1.5-.3s1.1.1 1.5.3c.1 0 .2.1.3.1 1 .4 1.7 1.2 2.2 2.2 0 .1.1.2.1.3.2.5.3 1 .3 1.5s-.1 1.1-.3 1.5c0 .1-.1.2-.1.3-.4 1-1.2 1.7-2.2 2.2-.1 0-.2.1-.3.1-.5.2-1 .3-1.5.3s-1.1-.1-1.5-.3c-.1 0-.2-.1-.3-.1-1-.4-1.7-1.2-2.2-2.2 0-.1-.1-.2-.1-.3zm-4.7 0h1.6c.1 0 .1.1.2.1.2.8.5 1.5.9 2.1v.2l-1.1 1.1c-.1.1-.1.2 0 .2l2 2c.1.1.2.1.2 0l1.1-1.1c.1-.1.1-.1.2 0 .6.4 1.4.7 2.1.9.1 0 .1.1.1.2v1.6c0 .1.1.2.2.2h2.8c.1 0 .2-.1.2-.2v-1.6c0-.1.1-.1.1-.2.8-.2 1.5-.5 2.1-.9h.2l1.1 1.1c.1.1.2.1.2 0l2-2c.1-.1.1-.2 0-.2l-1.1-1.1c-.1-.1-.1-.1 0-.2.4-.6.7-1.4.9-2.1 0-.1.1-.1.2-.1h1.6c.1 0 .2-.1.2-.2v-2.8c0-.1-.1-.2-.2-.2h-1.6c-.1 0-.1-.1-.2-.1-.2-.8-.5-1.5-.9-2.1v-.2l1.1-1.1c.1-.1.1-.2 0-.2l-2-2c-.1-.1-.2-.1-.2 0l-1.1 1.1c-.1.1-.1.1-.2 0-.6-.4-1.4-.7-2.1-.9-.1 0-.1-.1-.1-.2v-1.6c0-.1-.1-.2-.2-.2h-2.8c-.1 0-.2.1-.2.2v1.6c0 .1-.1.1-.1.2-.8.2-1.5.5-2.1.9h-.2l-1.1-1.1c-.1-.1-.2-.1-.2 0l-2 2c-.1.1-.1.2 0 .2l1.1 1.1c.1.1.1.1 0 .2-.4.6-.7 1.4-.9 2.1 0 .1-.1.1-.2.1h-1.6c-.1 0-.2.1-.2.2v2.8l.2.2z"/><path fill-rule="evenodd" clip-rule="evenodd" fill="#C5EBF9" d="M447.6 245.1c-.2-.5-.3-1-.3-1.5s.1-1.1.3-1.5c0-.1.1-.1.1-.2.4-1 1.3-1.8 2.3-2.3.1 0 .1-.1.2-.1.5-.2 1-.3 1.5-.3s1.1.1 1.5.3c.1 0 .2.1.3.1 1 .4 1.7 1.2 2.2 2.2 0 .1.1.2.1.3.2.5.3 1 .3 1.5s-.1 1.1-.3 1.5c0 .1-.1.2-.1.3-.4 1-1.2 1.7-2.2 2.2-.1 0-.2.1-.3.1-.5.2-1 .3-1.5.3s-1.1-.1-1.5-.3c-.1 0-.2-.1-.3-.1-1-.4-1.7-1.2-2.2-2.2 0-.1-.1-.2-.1-.3zm-4.7 0h1.6c.1 0 .1.1.2.1.2.8.5 1.5.9 2.1v.2l-1.1 1.1c-.1.1-.1.2 0 .2l2 2c.1.1.2.1.2 0l1.1-1.1c.1-.1.1-.1.2 0 .6.4 1.4.7 2.1.9.1 0 .1.1.1.2v1.6c0 .1.1.2.2.2h2.8c.1 0 .2-.1.2-.2v-1.6c0-.1.1-.1.1-.2.8-.2 1.5-.5 2.1-.9h.2l1.1 1.1c.1.1.2.1.2 0l2-2c.1-.1.1-.2 0-.2l-1.1-1.1c-.1-.1-.1-.1 0-.2.4-.6.7-1.4.9-2.1 0-.1.1-.1.2-.1h1.6c.1 0 .2-.1.2-.2v-2.8c0-.1-.1-.2-.2-.2h-1.6c-.1 0-.1-.1-.2-.1-.2-.8-.5-1.5-.9-2.1v-.2l1.1-1.1c.1-.1.1-.2 0-.2l-2-2c-.1-.1-.2-.1-.2 0l-1.1 1.1c-.1.1-.1.1-.2 0-.6-.4-1.4-.7-2.1-.9-.1 0-.1-.1-.1-.2v-1.6c0-.1-.1-.2-.2-.2h-2.8c-.1 0-.2.1-.2.2v1.6c0 .1-.1.1-.1.2-.8.2-1.5.5-2.1.9h-.2l-1.1-1.1c-.1-.1-.2-.1-.2 0l-2 2c-.1.1-.1.2 0 .2l1.1 1.1c.1.1.1.1 0 .2-.4.6-.7 1.4-.9 2.1 0 .1-.1.1-.2.1h-1.6c-.1 0-.2.1-.2.2v2.8c.1.2.2.2.2.2z"/><path fill-rule="evenodd" clip-rule="evenodd" fill="#0E84C6" d="M379.2 404c-.3-.8-.5-1.7-.5-2.6 0-.9.2-1.8.5-2.6 0-.1.1-.2.1-.4.7-1.7 2.1-3 3.8-3.8.1-.1.2-.1.4-.1.8-.3 1.7-.5 2.6-.5.9 0 1.8.2 2.6.5.2.1.3.1.4.2 1.6.7 2.9 2 3.7 3.7.1.1.1.3.2.4.3.8.5 1.7.5 2.6 0 .9-.2 1.8-.5 2.6-.1.2-.1.3-.2.4-.7 1.6-2 2.9-3.7 3.7-.1.1-.3.1-.4.2-.8.3-1.7.5-2.6.5-.9 0-1.8-.2-2.6-.5-.2-.1-.3-.1-.4-.2-1.6-.7-2.9-2-3.7-3.7-.1-.1-.2-.2-.2-.4zm-7.8 0h2.6c.1 0 .2.1.3.2.3 1.3.8 2.5 1.5 3.5.1.1.1.2 0 .3l-1.9 1.9c-.1.1-.1.3 0 .4l3.3 3.3c.1.1.3.1.4 0l1.9-1.9c.1-.1.2-.1.3 0 1.1.7 2.3 1.2 3.6 1.5.1 0 .2.1.2.3v2.6c0 .1.1.3.3.3h4.6c.1 0 .3-.1.3-.3v-2.6c0-.1.1-.2.2-.3 1.3-.3 2.5-.8 3.5-1.5.1-.1.2-.1.3 0l1.9 1.9c.1.1.3.1.4 0l3.3-3.3c.1-.1.1-.3 0-.4l-1.9-1.9c-.1-.1-.1-.2 0-.3.7-1.1 1.2-2.3 1.5-3.5 0-.1.1-.2.3-.2h2.6c.1 0 .3-.1.3-.3v-4.6c0-.1-.1-.3-.3-.3h-2.6c-.1 0-.2-.1-.3-.2-.3-1.3-.8-2.5-1.5-3.6-.1-.1-.1-.2 0-.3l1.9-1.9c.1-.1.1-.3 0-.4l-3.3-3.3c-.1-.1-.3-.1-.4 0l-1.9 1.9c-.1.1-.2.1-.3 0-1.1-.7-2.3-1.2-3.5-1.5-.1 0-.2-.1-.2-.3v-2.6c0-.1-.1-.3-.3-.3h-4.6c-.1 0-.3.1-.3.3v2.6c0 .1-.1.2-.2.3-1.3.3-2.5.8-3.5 1.5-.1.1-.2.1-.3 0l-1.9-1.9c-.1-.1-.3-.1-.4 0l-3.3 3.3c-.1.1-.1.3 0 .4l1.9 1.9c.1.1.1.2 0 .3-.7 1.1-1.2 2.3-1.5 3.5 0 .1-.1.2-.3.2h-2.6c-.1 0-.3.1-.3.3v4.6c-.1.3.1.4.2.4z"/><g><path fill="#C5EBF9" d="M302.7 132.4c0 2.4-1.8 4.3-4.2 4.5h-28.3c-.3 0-.6 0-.9-.1-3-.4-5.3-3-5.3-6.1 0-3.4 2.8-6.2 6.2-6.2.4 0 .8 0 1.3.1-.3-.9-.5-1.8-.5-2.8 0-4.7 3.8-8.5 8.5-8.5 4.1 0 7.5 2.9 8.3 6.8.9-.4 2-.7 3-.7 3.9 0 7 3.1 7 7v.6c0 .3-.1.6-.1.9h.8c2.3.1 4.2 2.1 4.2 4.5z"/><circle fill="#E9F8FF" cx="274.8" cy="130.2" r="2.5"/><circle fill="#E9F8FF" cx="283.3" cy="130.2" r="2.5"/><circle fill="#E9F8FF" cx="290.6" cy="130.2" r="2.5"/></g><g><path fill="#C5EBF9" d="M424.9 188.6c0 2.4-1.8 4.3-4.2 4.5h-28.3c-.3 0-.6 0-.9-.1-3-.4-5.3-3-5.3-6.1 0-3.4 2.8-6.2 6.2-6.2.4 0 .8 0 1.3.1-.3-.9-.5-1.8-.5-2.8 0-4.7 3.8-8.5 8.5-8.5 4.1 0 7.5 2.9 8.3 6.8.9-.4 2-.7 3-.7 3.9 0 7 3.1 7 7v.6c0 .3-.1.6-.1.9h.8c2.4.2 4.2 2.1 4.2 4.5z"/><circle fill="#E9F8FF" cx="397.1" cy="186.5" r="2.5"/><circle fill="#E9F8FF" cx="405.5" cy="186.5" r="2.5"/><circle fill="#E9F8FF" cx="412.9" cy="186.5" r="2.5"/></g><g><g opacity=".14"><path clip-rule="evenodd" fill="none" stroke="#6D6AFE" stroke-width="4" stroke-miterlimit="10" d="M419 408.1s-3-45 29.6-67.3"/><linearGradient id="bM" gradientUnits="userSpaceOnUse" x1="403.234" y1="768.363" x2="423.211" y2="768.363" gradientTransform="rotate(8.216 3039.271 699.763)"><stop offset="0" stop-color="#6d6afe"/><stop offset="1" stop-color="#3fb0f7"/></linearGradient><path fill="url(#bM)" d="M419.5 397.4s7.6-10.5 21.6-10.1c.1 0-5.4 13.5-21.6 10.1z"/><linearGradient id="bN" gradientUnits="userSpaceOnUse" x1="4380.171" y1="-1774.775" x2="4400.146" y2="-1774.775" gradientTransform="rotate(-102.656 3264.733 896.955)"><stop offset="0" stop-color="#6d6afe"/><stop offset="1" stop-color="#3fb0f7"/></linearGradient><path fill="url(#bN)" d="M419.9 392.6s-12.5-3.4-17.2-16.6c0 0 14.6.3 17.2 16.6z"/><linearGradient id="bO" gradientUnits="userSpaceOnUse" x1="4400.634" y1="-1762.047" x2="4415.252" y2="-1762.047" gradientTransform="rotate(-102.656 3264.733 896.955)"><stop offset="0" stop-color="#6d6afe"/><stop offset="1" stop-color="#3fb0f7"/></linearGradient><path fill="url(#bO)" d="M426.1 370.2s-9.1-2.5-12.6-12.2c.1 0 10.7.3 12.6 12.2z"/><linearGradient id="bP" gradientUnits="userSpaceOnUse" x1="4126.793" y1="-1839.847" x2="4137.406" y2="-1839.847" gradientTransform="rotate(-96.679 3255.15 902.198)"><stop offset="0" stop-color="#6d6afe"/><stop offset="1" stop-color="#3fb0f7"/></linearGradient><path fill="url(#bP)" d="M433.8 355s-6.4-2.5-8.2-9.7c.1-.1 7.8.9 8.2 9.7z"/><linearGradient id="bQ" gradientUnits="userSpaceOnUse" x1="3602.648" y1="-1903.339" x2="3610.212" y2="-1903.339" gradientTransform="rotate(-86.176 3223.407 910.894)"><stop offset="0" stop-color="#6d6afe"/><stop offset="1" stop-color="#3fb0f7"/></linearGradient><path fill="url(#bQ)" d="M443.2 345s-4.2-2.6-4.4-7.9c0 0 5.2 1.7 4.4 7.9z"/><linearGradient id="bR" gradientUnits="userSpaceOnUse" x1="404.022" y1="750.532" x2="420.175" y2="750.532" gradientTransform="rotate(8.216 3039.271 699.763)"><stop offset="0" stop-color="#6d6afe"/><stop offset="1" stop-color="#3fb0f7"/></linearGradient><path fill="url(#bR)" d="M423 378.6s6.2-8.5 17.5-8.2c0 0-4.4 11-17.5 8.2z"/><linearGradient id="bS" gradientUnits="userSpaceOnUse" x1="498.337" y1="1442.662" x2="513.261" y2="1442.662" gradientTransform="rotate(22.165 3233.537 729.148)"><stop offset="0" stop-color="#6d6afe"/><stop offset="1" stop-color="#3fb0f7"/></linearGradient><path fill="url(#bS)" d="M429.4 362.5s7.4-6.2 17.5-3.4c0-.1-6.4 8.7-17.5 3.4z"/><linearGradient id="bT" gradientUnits="userSpaceOnUse" x1="567.488" y1="1655.871" x2="576.632" y2="1655.871" gradientTransform="rotate(26.76 3255.332 733.31)"><stop offset="0" stop-color="#6d6afe"/><stop offset="1" stop-color="#3fb0f7"/></linearGradient><path fill="url(#bT)" d="M438.7 349.7s4.8-3.4 10.9-1.2c-.1-.1-4.4 5-10.9 1.2z"/><linearGradient id="bU" gradientUnits="userSpaceOnUse" x1="1098.195" y1="2554.753" x2="1102.588" y2="2554.753" gradientTransform="rotate(47.094 3311.316 701.371)"><stop offset="0" stop-color="#6d6afe"/><stop offset="1" stop-color="#3fb0f7"/></linearGradient><path fill="url(#bU)" d="M446 343s2.7-.7 5.1 1.3c0 0-2.8 1.5-5.1-1.3z"/><linearGradient id="bV" gradientUnits="userSpaceOnUse" x1="423.205" y1="713.719" x2="426.879" y2="713.719" gradientTransform="rotate(8.216 3039.271 699.763)"><stop offset="0" stop-color="#6d6afe"/><stop offset="1" stop-color="#3fb0f7"/></linearGradient><path fill="url(#bV)" d="M451.7 340.2c-.1.8-1 1.3-2 1.2-1-.1-1.7-.9-1.6-1.7.1-.8 1-1.3 2-1.2 1 .2 1.7.9 1.6 1.7z"/></g><path fill="#83CDEA" d="M418.3 408.3l-.9-.1c0-.1 1.2-9.3-.7-20.9-1.8-10.6-6.6-25.5-19.8-35.9l.6-.7c5.9 4.7 10.7 10.6 14.2 17.6 2.8 5.6 4.8 12 5.9 18.8 2 11.8.8 21.1.7 21.2z"/><path fill="#83CDEA" d="M418 399.4s-5.7-9.1-17.3-9.6c.1 0 3.9 11.5 17.3 9.6zM418 395.4s10.5-2.1 15.1-12.7c0-.1-12-.6-15.1 12.7zM414.1 376.6s7.7-1.5 11-9.3c.1 0-8.7-.4-11 9.3zM408.6 363.6s5.4-1.7 7.3-7.6c0 0-6.4.4-7.3 7.6zM401.5 354.8s3.6-1.9 4.1-6.2c0 0-4.5 1.1-4.1 6.2zM416.2 383.7s-4.6-7.3-14-7.7c0 0 3.1 9.2 14 7.7zM411.9 370s-5.8-5.5-14.3-3.8c0 0 4.8 7.6 14.3 3.8zM404.9 359s-3.8-3.1-8.9-1.6c.1-.1 3.4 4.3 8.9 1.6zM399.3 353.1s-2.2-.8-4.3.7c0 0 2.2 1.5 4.3-.7zM394.7 350.5c.1.7.8 1.2 1.6 1.1.8-.1 1.5-.7 1.4-1.3-.1-.7-.8-1.2-1.6-1.1-.8 0-1.4.6-1.4 1.3z"/><g><path fill="#9FDFFF" d="M418.5 408.1c0-.1-.7-11.5 2.6-25.4 1.9-8.2 4.9-15.7 8.7-22.2 4.8-8.2 11-15 18.5-20.1l.5.7c-16.7 11.4-23.8 29-26.9 41.7-3.3 13.8-2.6 25.1-2.6 25.2l-.8.1z"/><path fill="#9FDFFF" d="M419.5 397.4s7.6-10.5 21.6-10.1c.1 0-5.4 13.5-21.6 10.1zM419.9 392.6s-12.5-3.4-17.2-16.6c0 0 14.6.3 17.2 16.6zM426.1 370.2s-9.1-2.5-12.6-12.2c.1 0 10.7.3 12.6 12.2zM433.8 355s-6.4-2.5-8.2-9.7c.1-.1 7.8.9 8.2 9.7zM443.2 345s-4.2-2.6-4.4-7.9c0 0 5.2 1.7 4.4 7.9zM423 378.6s6.2-8.5 17.5-8.2c0 0-4.4 11-17.5 8.2zM429.4 362.5s7.4-6.2 17.5-3.4c0-.1-6.4 8.7-17.5 3.4zM438.7 349.7s4.8-3.4 10.9-1.2c-.1-.1-4.4 5-10.9 1.2zM446 343s2.7-.7 5.1 1.3c0 0-2.8 1.5-5.1-1.3zM451.7 340.2c-.1.8-1 1.3-2 1.2-1-.1-1.7-.9-1.6-1.7.1-.8 1-1.3 2-1.2 1 .2 1.7.9 1.6 1.7z"/></g><linearGradient id="bW" gradientUnits="userSpaceOnUse" x1="418.444" y1="403.293" x2="418.444" y2="417.859"><stop offset="0" stop-color="#e6d196"/><stop offset="1" stop-color="#e69696"/></linearGradient><path fill="url(#bW)" d="M424.3 405.9l-.1 1.1-1.2 10.9h-8.8l-1.4-10.9-.2-1.1z"/><linearGradient id="bX" gradientUnits="userSpaceOnUse" x1="418.458" y1="418.919" x2="418.458" y2="405.364"><stop offset="0" stop-color="#e6d196"/><stop offset="1" stop-color="#e69696"/></linearGradient><path opacity=".37" fill="url(#bX)" d="M424.2 407l-1.2 10.9h-8.8l-1.4-10.9z"/></g></g></switch></svg>