<?xml version="1.0" encoding="utf-8"?>
<!-- Generator: Adobe Illustrator 24.0.1, SVG Export Plug-In . SVG Version: 6.00 Build 0)  -->
<svg version="1.1" id="Layer_1" xmlns="http://www.w3.org/2000/svg" xmlns:xlink="http://www.w3.org/1999/xlink" x="0px" y="0px"
	 viewBox="0 0 853 892" style="enable-background:new 0 0 853 892;" xml:space="preserve">
<style type="text/css">
	.st0{display:none;}
	.st1{display:inline;}
	.st2{opacity:0.6;fill:#D1E3F1;}
	.st3{opacity:0.5;fill:#FFFFFF;}
	.st4{display:inline;opacity:0.6;fill:#D1E3F1;}
	.st5{display:inline;fill:#D1E3F1;}
	.st6{opacity:0.6;fill:#8D53DF;}
	.st7{fill:#1C47C1;}
	.st8{fill:#0036AC;}
	.st9{fill:#0172D0;}
	.st10{fill:#FFAC00;}
	.st11{fill:#FA8A00;}
	.st12{fill:#FDA893;}
	.st13{fill:#001F37;}
	.st14{fill:#043C62;}
	.st15{fill:#005982;}
	.st16{fill:#FD896B;}
	.st17{fill:#0056C5;}
	.st18{fill:#FFFFFF;}
	.st19{fill:#EDEDED;}
	.st20{fill:#20363C;}
</style>
<g>
	<g>
		<g class="st0">
			<g class="st1">
				<g>
					<path class="st2" d="M715.83,277.44c0,0.01,0,0.01,0,0.02c-2.72,14.28-8.05,27.5-15.45,39.21
						c-20.42,32.37-56.56,53.24-96.73,53.24h-77.11c-31.31,0-61.19-12.84-82.72-35.43c-0.93-0.97-1.84-1.97-2.74-2.97
						c-11.99-13.51-20.65-29.57-25.26-46.86c-1.54-5.76-2.63-11.66-3.25-17.64c-0.01-0.14-0.03-0.28-0.04-0.43
						c-1.1-10.87-1.41-21.33-0.85-31.21c1.24-21.99,6.78-41.08,17.51-55.32c12.48-16.57,31.97-26.56,59.87-26.87
						c1.16-0.01,2.32-0.01,3.51,0.01c76.86,1.16,74.3,36.21,137.25,51.59c14.39,3.52,32.19,6.01,55.16,6.82
						c0.52,0.02,1.03,0.04,1.53,0.08C718.74,213.75,722.21,243.96,715.83,277.44z"/>
					<path class="st3" d="M686.5,211.68c-21.78,11.37-55.8,23.55-96.79,19.11c-62.2-6.73-140.49-19.76-178.03,4.59
						c1.24-21.99,6.78-41.08,17.51-55.32c13.14-3.05,29.84-3.18,50.94,2.27c45.72,11.81,105.08,24.7,149.67,22.45
						c14.39,3.52,32.19,6.01,55.16,6.82C685.49,211.62,686,211.65,686.5,211.68z"/>
					<path class="st3" d="M715.83,277.46c-2.72,14.28-8.05,27.5-15.45,39.21c-15.75,4.74-36.69,6.48-63.83,0.56
						c-66.29-14.48-139-14.22-192.72,17.26c-0.93-0.97-1.84-1.97-2.74-2.97c-11.99-13.51-20.65-29.57-25.26-46.86
						c18.77-8.89,65.79-26.17,126.4-12.33C606.15,286.91,679.42,298.51,715.83,277.46z"/>
				</g>
			</g>
			<path class="st4" d="M588.5,139.12c0,0.97-0.4,1.85-1.04,2.49c-0.64,0.64-1.52,1.04-2.49,1.04h-75.52
				c-1.94,0-3.53-1.59-3.53-3.53c0-0.97,0.4-1.85,1.04-2.49c0.64-0.64,1.52-1.04,2.49-1.04h3.57c1.41-3.28,4.67-5.57,8.46-5.57
				c2.55,0,4.86,1.04,6.53,2.71c2.22-3.77,6.33-6.31,11.03-6.31c1.29,0,2.53,0.2,3.71,0.55c2.46-4.62,7.31-7.77,12.91-7.77
				c6.72,0,12.38,4.54,14.09,10.72c1.24-0.62,2.64-0.97,4.12-0.97c4.19,0,7.73,2.8,8.84,6.63h2.27
				C586.91,135.59,588.5,137.18,588.5,139.12z"/>
			<path class="st5" d="M674.65,179.12l0.96-4.9l-4.59-0.9c0-1.21-0.21-2.42-0.61-3.59l3.78-2.54l-2.78-4.14l-3.62,2.43
				c-1.08-1.09-2.34-1.94-3.72-2.5l0.9-4.59l-4.9-0.96l-0.93,4.73c-1.01,0.06-2.01,0.25-2.98,0.58l-2.54-3.78l-4.14,2.78l2.43,3.62
				c-1.09,1.08-1.94,2.34-2.5,3.72l-4.01-0.79l-0.96,4.9l4.15,0.82c0.07,1.28,0.36,2.56,0.88,3.78l-3.62,2.43l2.78,4.14l3.78-2.54
				c1.09,0.95,2.33,1.66,3.65,2.12l-0.91,4.62l4.9,0.96l0.98-5.01c1.08-0.12,2.14-0.4,3.17-0.84l2.43,3.62l4.14-2.78l-2.54-3.78
				c0.68-0.78,1.23-1.63,1.66-2.54L674.65,179.12z M662.34,177.16c-2.09,1.41-4.94,0.85-6.35-1.25c-1.41-2.09-0.85-4.94,1.25-6.35
				c2.09-1.41,4.94-0.85,6.35,1.25C665,172.9,664.44,175.75,662.34,177.16z"/>
			<path class="st5" d="M414.87,185.02l0.96-4.9l-4.59-0.9c0-1.21-0.21-2.42-0.61-3.59l3.78-2.54l-2.78-4.14l-3.62,2.43
				c-1.08-1.09-2.34-1.94-3.72-2.5l0.9-4.59l-4.9-0.96l-0.93,4.73c-1.01,0.06-2.01,0.25-2.98,0.58l-2.54-3.78l-4.14,2.78l2.43,3.62
				c-1.09,1.08-1.94,2.34-2.5,3.72l-4.01-0.79l-0.96,4.9l4.15,0.82c0.07,1.28,0.36,2.56,0.88,3.78l-3.62,2.43l2.78,4.14l3.78-2.54
				c1.09,0.95,2.33,1.66,3.65,2.12l-0.91,4.62l4.9,0.96l0.98-5.01c1.08-0.12,2.14-0.4,3.17-0.84l2.43,3.62l4.14-2.78l-2.54-3.78
				c0.68-0.78,1.23-1.63,1.66-2.54L414.87,185.02z M402.56,183.06c-2.09,1.41-4.94,0.85-6.35-1.25c-1.41-2.09-0.85-4.94,1.25-6.35
				c2.09-1.41,4.94-0.85,6.35,1.25C405.22,178.8,404.66,181.65,402.56,183.06z"/>
			<path class="st5" d="M700.98,184.94l0.53-2.68l-2.51-0.49c0-0.66-0.11-1.32-0.33-1.96l2.07-1.39l-1.52-2.26l-1.98,1.33
				c-0.59-0.6-1.28-1.06-2.03-1.37l0.49-2.51l-2.68-0.53l-0.51,2.59c-0.55,0.03-1.1,0.14-1.63,0.32l-1.39-2.07l-2.26,1.52l1.33,1.98
				c-0.6,0.59-1.06,1.28-1.37,2.03l-2.19-0.43l-0.53,2.68l2.27,0.45c0.04,0.7,0.2,1.4,0.48,2.07l-1.98,1.33l1.52,2.26l2.07-1.39
				c0.59,0.52,1.27,0.9,1.99,1.16l-0.5,2.52l2.68,0.53l0.54-2.74c0.59-0.06,1.17-0.22,1.73-0.46l1.33,1.98l2.26-1.52l-1.39-2.07
				c0.37-0.42,0.67-0.89,0.91-1.39L700.98,184.94z M694.26,183.87c-1.14,0.77-2.7,0.46-3.47-0.68c-0.77-1.14-0.46-2.7,0.68-3.47
				c1.14-0.77,2.7-0.46,3.47,0.68C695.71,181.54,695.4,183.1,694.26,183.87z"/>
			<path class="st4" d="M613.13,122.76c0,1.43,0.58,2.73,1.53,3.67c0.94,0.95,2.24,1.53,3.67,1.53h111.22c2.86,0,5.2-2.34,5.2-5.2
				c0-1.43-0.58-2.73-1.53-3.67c-0.94-0.95-2.24-1.53-3.67-1.53h-5.26c-2.08-4.82-6.87-8.2-12.45-8.2c-3.76,0-7.15,1.53-9.61,4
				c-3.28-5.56-9.32-9.29-16.24-9.29c-1.9,0-3.73,0.29-5.46,0.81c-3.62-6.8-10.77-11.44-19.02-11.44c-9.9,0-18.23,6.68-20.74,15.78
				c-1.82-0.91-3.88-1.43-6.07-1.43c-6.17,0-11.38,4.12-13.02,9.77h-3.35C615.47,117.56,613.13,119.9,613.13,122.76z"/>
		</g>
		<path class="st6" d="M734.78,385.45c0,5.76-81.93,10.42-183,10.42c-101.07,0-183-4.67-183-10.42c0-5.76,81.93-10.42,183-10.42
			C652.85,375.02,734.78,379.69,734.78,385.45z"/>
		<g>
			<path class="st7" d="M430.5,385.29h3.18l-11.75-30.52c0.58-2.8,1.82-6.66,4.41-11.2c4.85-8.48,8.52-18.38,2.3-17.69
				c-5.39,0.6-9.2,12.01-8.93,23.13l-4.22-10.96c-0.73-3.61-1.77-8.77-1.44-14.59c0.78-13.48-0.96-26.38-7.48-22.86
				c-6.52,3.52-3.1,25.67,6.69,39.92l2.17,5.64c-6.96-10.51-20.23-19.05-25.33-15.37c-5.07,3.66,4.28,8.54,13.57,11.58
				c7.07,2.31,11.17,5.44,13.09,7.24l10.26,26.65c-11.06-16.6-32.03-30.07-40.1-24.24c-8.04,5.8,6.8,13.55,21.53,18.37
				c11.14,3.64,17.63,8.57,20.7,11.43L430.5,385.29z"/>
			<g>
				<path class="st7" d="M670.92,385.29c0.61-2.74,0.39-5.9-0.91-8.75c-3.39-7.46,0.95-9.94,6.55-13.73
					c5.6-3.79,4.76-11.29-0.9-16.46c-5.65-5.17,1.1-11.75-3.75-20.33c-4.85-8.57-13.52-0.32-13.88,8.62
					c-0.26,6.43-8.53,6.82-9.79,15.35c-1.1,7.41,8.87,11.89-0.4,17.17c-2.96,1.68-4.19,4.5-4.5,7.54c-0.4,3.93,0.83,7.68,3.15,10.58
					H670.92z"/>
				<g>
					<path class="st8" d="M658.03,385.29l8.35-47.66c0.07-0.42-0.21-0.81-0.62-0.89c-0.42-0.07-0.81,0.21-0.89,0.62l-8.4,47.92
						H658.03z"/>
				</g>
			</g>
			<g>
				<path class="st9" d="M694.29,385.29c0.07-0.66,0.1-1.33,0.09-2.01c-0.18-10.44,6.14-11.13,14.61-12.71
					c8.47-1.58,11.28-10.78,7.3-19.68c-3.98-8.91,7.24-13.17,5.93-25.64c-1.31-12.47-15.63-7.23-20.59,3.03
					c-3.57,7.37-13.42,3.64-19.22,12.97c-5.04,8.1,4.32,18.39-9.17,19.85c-4.31,0.47-7.18,3.13-9.08,6.53
					c-3.15,5.62-3.03,12.24-0.25,17.67H694.29z"/>
				<g>
					<path class="st7" d="M677.35,385.29L709.87,336c0.3-0.45,0.17-1.05-0.28-1.35c-0.45-0.3-1.05-0.17-1.35,0.28l-33.22,50.36
						H677.35z"/>
				</g>
			</g>
			<g>
				<g>
					<path class="st7" d="M459.68,370.2c-2.93-23.19-7.36-47.25-12.17-62.83c-6.28-20.36-14.14-33.85-23.36-40.1
						c-0.61-0.41-1.44-0.25-1.86,0.36c-0.41,0.61-0.25,1.44,0.36,1.86c16.11,10.93,28.06,46.37,34.59,102.58L459.68,370.2z"/>
				</g>
				<path class="st9" d="M440.39,289.68c0,0,10.96-2.16,6.42-21.29C446.81,268.4,430.96,276.46,440.39,289.68z"/>
				<path class="st9" d="M443.24,299.42c0,0-1.54-11.07-20.9-7.59C422.35,291.83,429.51,308.1,443.24,299.42z"/>
				<path class="st9" d="M429.58,274.01c0,0,2.23-10.95-17.17-14.12C412.41,259.89,413.74,277.62,429.58,274.01z"/>
				<path class="st9" d="M449.59,318.84c0,0,11.05,1.68,13.24-17.86C462.83,300.98,445.19,303.21,449.59,318.84z"/>
				<path class="st9" d="M451,329.21c0,0,0.39-11.17-19.27-11.09C431.73,318.12,435.97,335.38,451,329.21z"/>
				<path class="st9" d="M454.33,343.21c0,0,11.01,1.89,13.58-17.61C467.9,325.6,450.23,327.49,454.33,343.21z"/>
			</g>
		</g>
		<g>
			<polygon class="st10" points="715.84,273.17 715.8,273.24 691.98,318.45 682.91,301.95 570.54,363.66 552.41,330.64 
				451.32,386.15 412.34,386.15 559.82,305.16 577.96,338.18 673.88,285.5 664.82,269 			"/>
			<polygon class="st11" points="715.8,273.24 691.98,318.45 682.91,301.95 570.54,363.66 552.41,330.64 451.32,386.15 
				429.01,386.15 555.13,316.89 573.26,349.91 			"/>
		</g>
		<g>
			<g>
				<g>
					<path class="st12" d="M506.71,307.93l-6.53,4.49c0,0-0.09,2.96,2.54,6.16l7.71-5.1L506.71,307.93z"/>
					<g>
						<path class="st9" d="M503.62,316.21c0.97,1.14,1.39,2.02,0.42,3.55c-0.64,1-2.32,11.41-1.8,14.56
							c0.52,3.14-1.85,3.37-3.15,3.24c-1.3-0.13-8.24-23.58-8.24-23.58s6.58-3.15,8.94-3.17
							C502.15,310.79,502.28,314.09,503.62,316.21z"/>
					</g>
				</g>
				<path class="st13" d="M556.81,243.52c0,0-0.71,38.3-4.78,45.86c-4.07,7.56-43.07,25.74-43.07,25.74s-2.73-3.12-3.55-7.47
					c0,0,10.99-9.66,15.34-14.03c6.52-6.56,16.17-12.24,16.17-12.24l-0.99-43.52L556.81,243.52z"/>
				<path class="st14" d="M506.77,305.6c0,0-2.84,1.74-3.64,2.66c0,0,2.21,7.33,5.98,8.21l2.82-1.79
					C511.94,314.68,507.91,309.7,506.77,305.6z"/>
			</g>
			<g>
				<g>
					<path class="st12" d="M620.2,294.17l4.09,6.79c0,0,2.95,0.27,6.3-2.16l-4.62-8.01L620.2,294.17z"/>
					<g>
						<path class="st9" d="M628.5,297.44c0.98-1.13,1.79-1.68,3.45-0.95c1.09,0.48,11.63,0.58,14.66-0.41
							c3.03-0.99,4.83,2,3.68,2.63c-6.18,3.43-22.07,11.68-22.07,11.68s-4.1-6.03-4.47-8.36
							C623.36,299.71,626.61,299.09,628.5,297.44z"/>
					</g>
				</g>
				<path class="st14" d="M554.82,221.75c0,0,42.94,16.56,48.54,23.12c5.6,6.56,24.36,47.19,24.36,47.19s-3.15,5.73-7.6,4.59
					c0,0-9.57-14.1-12.96-19.52c-3.54-5.67-11.85-12.46-15.87-24.68c0,0-22.93-0.82-40.43-3.67c-11.76-1.92-19.93-10.36-17.07-21.93
					c0.01-0.03,0.02-0.06,0.03-0.09c0.23-0.71,0.84-1.22,1.57-1.36L554.82,221.75z"/>
				<path class="st15" d="M617.92,294.69c0,0,1.43,2.5,2.34,3.32c0,0,5.6-1.51,8.36-5.77l-1.45-2.86
					C627.18,289.38,622.24,293.01,617.92,294.69z"/>
			</g>
			<g>
				<g>
					<path class="st12" d="M642.77,143.59c-1.36-0.3-6.97,3.09-7.22,3.15c-0.24,0.06-1.38-0.25-2.53-0.33
						c-1.15-0.07-1.81,0.33-2.65,1.92c-0.84,1.6-1.49,4.32-1.49,4.32c-0.54,0.26-1.13,0.53-1.77,0.82c0.96,1.71,1.97,3.39,3.05,5.03
						c0.96-0.63,1.83-1.2,2.56-1.7c0.57,0.18,1.14,0.23,1.67,0.08c1.38-0.4,2.55-0.85,3.24-1.13c0.41-0.17,0.64-0.27,0.64-0.27
						s0.01,0,0.02,0.01c0.13,0.05,0.79,0.29,2.05-0.13c1.42-0.48,2.34-1.59,2.31-2.3c-0.02-0.72-0.87-1.07-0.87-1.07
						s0.58-0.56,0.5-1.31c-0.08-0.75-1.42-1.4-1.42-1.4s0.57-0.81-0.02-1.54c-0.56-0.7-2.28,0.07-2.43,0.13
						C638.65,147.71,644.09,143.88,642.77,143.59z"/>
					<g>
						<g>
							<path class="st16" d="M632.29,150.96c-0.05,0-0.1-0.01-0.15-0.03c-0.16-0.07-0.23-0.26-0.16-0.42l0.62-1.35
								c0.04-0.08,0.11-0.14,0.19-0.17c0.09-0.03,0.18-0.02,0.25,0.03c0.01,0.01,1.52,0.84,2.82,0.43c0.4-0.13,0.66-0.31,0.76-0.54
								c0.11-0.25-0.01-0.51-0.01-0.51c-0.08-0.16-0.01-0.35,0.14-0.42c0.16-0.08,0.34-0.02,0.42,0.14
								c0.03,0.05,0.25,0.52,0.04,1.04c-0.17,0.41-0.56,0.71-1.15,0.9c-1.19,0.38-2.45-0.07-3.02-0.33l-0.48,1.05
								C632.51,150.89,632.4,150.96,632.29,150.96z"/>
						</g>
						<g>
							<path class="st16" d="M638.29,155.49c-0.02-0.01-0.02-0.01-0.02-0.01s-0.23,0.1-0.64,0.27c-0.6-0.62-0.69-1.4-0.77-2.06
								c-0.07-0.57-0.13-1.07-0.45-1.41c-0.34-0.35-0.49-0.76-0.54-1.15c-0.05-0.38,0-0.74,0.07-1.04c0.03-0.11,0.06-0.22,0.09-0.3
								c0.08-0.23,0.16-0.39,0.16-0.41c0.08-0.16,0.27-0.22,0.43-0.14c0.16,0.08,0.22,0.27,0.14,0.43c0,0-0.01,0.03-0.03,0.07
								c-0.08,0.18-0.27,0.68-0.23,1.2c0.02,0.31,0.12,0.64,0.38,0.91c0.47,0.49,0.55,1.14,0.62,1.77
								C637.57,154.32,637.65,155,638.29,155.49z"/>
						</g>
						<g>
							<path class="st16" d="M633.73,153.42c-0.12,0.01-0.24-0.05-0.3-0.16c-0.08-0.15-0.03-0.35,0.12-0.43l0,0
								c0.02-0.01,1.84-1.04,1.91-2.85c0.01-0.18,0.16-0.31,0.33-0.3c0.18,0.01,0.31,0.15,0.3,0.33c-0.09,2.17-2.15,3.33-2.24,3.38
								C633.82,153.4,633.78,153.42,633.73,153.42z"/>
						</g>
					</g>
				</g>
				<path class="st9" d="M630.98,158.36c0,0-17.66,11.31-22.74,12.19c-5.09,0.88-20.71-1.37-20.71-1.37
					c-1.77-0.13-3.34-0.32-4.74-0.58c-4.73-0.87-7.5-2.43-9.13-4.49c-2.71-3.42-1.08-8.37,0.45-12.29c0,0,2.46,1.95,14.83,4.55
					c0,0,17.58,3.42,18.53,3.6c0,0,13.24-4.3,20.58-7.55C628.05,152.42,629.64,157.46,630.98,158.36z"/>
				<polygon class="st17" points="628.17,151.82 625.81,152.87 629.35,160.02 631.56,158.8 				"/>
				<path class="st7" d="M582.79,168.6c-4.73-0.87-7.5-2.43-9.13-4.49c-1.05-4.36-1.7-9.16,0.05-10.35
					C573.71,153.76,578.77,163.21,582.79,168.6z"/>
			</g>
			<g>
				<g>
					<g>
						<path class="st13" d="M525.99,232.13l-16.94,36.9c-0.67,1.45-2.39,2.09-3.84,1.42l-60.07-27.58
							c-1.46-0.67-2.09-2.39-1.42-3.84l16.94-36.9c0.67-1.46,2.39-2.09,3.84-1.42l60.07,27.58
							C526.02,228.95,526.66,230.67,525.99,232.13z"/>
						<path class="st14" d="M516.81,252.14l9.19-20.01c0.67-1.46,0.03-3.17-1.42-3.84l-60.07-27.58c-1.46-0.67-3.17-0.03-3.84,1.42
							l-9.19,20.01L516.81,252.14z"/>
					</g>
					<g>
						<g>
							<path class="st10" d="M506.49,212.9l-2.69,5.85l-2.97-1.36l2.61-5.69l-2.88-1.32l-0.14-0.07l-1.75-0.8l-0.22-0.1l-7.6-3.49
								l-2.61,5.69l-2.97-1.36l2.69-5.85c0.71-1.55,2.55-2.23,4.09-1.52l7.13,3.27l0.53,0.25l0.99,0.46l0.21,0.09l4.06,1.87
								C506.52,209.52,507.2,211.35,506.49,212.9z"/>
						</g>
						<path class="st11" d="M500.42,210.31l-1.75-0.8l-0.22-0.1c0.18-1.18,0.46-2.34,0.73-3.27l0.53,0.25l0.99,0.46
							C500.44,208.21,500.38,209.38,500.42,210.31z"/>
						
							<rect x="486.07" y="208.24" transform="matrix(0.4172 -0.9088 0.9088 0.4172 93.2325 565.1265)" class="st11" width="2.32" height="3.27"/>
						
							<rect x="501.64" y="215.39" transform="matrix(0.4172 -0.9088 0.9088 0.4172 95.8113 583.4421)" class="st11" width="2.32" height="3.27"/>
					</g>
					<g>
						<g>
							<path class="st11" d="M469.24,226.77l-2.68,5.85c-0.14,0.32-0.52,0.45-0.83,0.31l-3-1.38c-0.32-0.14-0.45-0.52-0.31-0.83
								l2.68-5.85c0.15-0.32,0.52-0.46,0.84-0.31l3,1.38C469.25,226.07,469.38,226.45,469.24,226.77z"/>
							<path class="st10" d="M469.24,226.77l-1.34,2.92l-4.14-1.9l1.34-2.92c0.15-0.32,0.52-0.46,0.84-0.31l3,1.38
								C469.25,226.07,469.38,226.45,469.24,226.77z"/>
						</g>
						<g>
							<path class="st11" d="M505.87,243.58l-2.68,5.85c-0.14,0.32-0.52,0.45-0.83,0.31l-3-1.38c-0.32-0.14-0.45-0.52-0.31-0.83
								l2.68-5.85c0.15-0.32,0.52-0.46,0.84-0.31l3,1.38C505.88,242.89,506.01,243.26,505.87,243.58z"/>
							<path class="st10" d="M505.87,243.58l-1.34,2.92l-4.15-1.9l1.34-2.92c0.15-0.32,0.52-0.46,0.84-0.31l3,1.38
								C505.88,242.89,506.01,243.26,505.87,243.58z"/>
						</g>
					</g>
				</g>
				<path class="st12" d="M503.46,208.11c-0.54-0.2-1.39-0.6-1.91-0.88c0.04-0.14,0.06-0.41-0.12-0.67c-0.4-0.57-1.15-0.33-1.33,0
					c-0.46,0.63-0.92,1.85-1.02,3.09l0.86,0.44c0,0-0.79,0.97-1.48,0.81c-0.94-0.23-0.81-1.24-0.81-1.24s-0.48,0.85-1.19,0.55
					c-0.71-0.29-0.72-1.15-0.72-1.15c-1.24,0.64-1.65-0.62-1.65-0.62s-1.18,0.46-1.41-0.56c-0.23-1.02,1.28-4.13,1.28-4.13
					c1.21-2.89,2.94-6.08,4.68-8.12c0.4-0.89,0.89-1.96,1.44-3.14c1.2,0.85,2.46,1.62,3.66,2.46c0.73,0.5,1.45,1,2.18,1.5
					c-1.09,1.45-2.01,2.63-2.6,3.39c0.05,0.86,0.07,1.79-0.02,2.46C503.12,203.77,504.09,206.54,503.46,208.11z"/>
				<path class="st9" d="M534.23,174.33l15.72-6.43c0,0,6.54-11.27,2.58-18.71c0,0-16.18,7.44-24.45,12.08
					c0,0-12.36,6.69-16.5,11.27l-12.86,21.79c0,0,3.86,4.43,6.5,4.14c4.77-6.48,11.43-15.77,12.72-18.86L534.23,174.33z"/>
				<path class="st17" d="M499.29,192.81c-0.84,0.61-1.6,1.54-1.74,2.71l7.13,4.66c0.75-0.68,1.39-1.56,1.91-2.6L499.29,192.81z"/>
			</g>
			<g>
				<path class="st9" d="M573.36,218.69c-0.89,4.85,0,10.95,0,10.95c-6.41-2.55-15.97-7.34-25.11-3.32
					c-7.42,3.26-14.64,1.4-14.64,1.4s-0.73-8.36,1.42-16.87c2.13-8.46,4.25-19.05,4.99-23.23c0.63-3.52,1.24-6.86,1.84-9.96
					c0.37-1.95,0.74-3.8,1.1-5.55l0,0c2.06-10.06,2.97-18.68,4.57-20c4.5-3.72,14.89-7.38,14.89-7.38l6.97,1.95
					c0,0,7.45,5.76,7.38,9.95c-0.66,36.99-1.64,37.25-2.36,48.49C574.18,208.46,574.3,213.56,573.36,218.69z"/>
				<g>
					<path class="st7" d="M541.28,212.07c-0.12-0.01-0.19-0.01-0.22-0.02c-0.26-0.02-0.46-0.25-0.43-0.51
						c0.02-0.26,0.25-0.45,0.51-0.43c0.01,0,0.02,0,0.12,0.01c1.1,0.08,9.85,0.59,16.07-1.73c7.96-2.96,12.7-9.19,12.75-9.25
						c0.16-0.21,0.46-0.25,0.66-0.09c0.21,0.16,0.25,0.45,0.09,0.66c-0.2,0.26-4.95,6.51-13.18,9.57
						C551.33,212.63,542.79,212.17,541.28,212.07z"/>
				</g>
				<g>
					<path class="st7" d="M563.19,212.55c0-0.36-0.38-0.59-0.7-0.41c-3.83,2.09-10.83,5.06-18.4,3.93c-0.26-0.04-0.5,0.14-0.54,0.4
						c-0.04,0.26,0.14,0.5,0.4,0.54c0.96,0.14,1.91,0.22,2.85,0.25c6.69,0.18,12.68-2.4,16.15-4.29
						C563.1,212.88,563.19,212.73,563.19,212.55L563.19,212.55z"/>
				</g>
				<path class="st7" d="M555.52,166.47c0,0-5.1,5.64-13.41,9.88c0.37-1.95,0.78-3.96,1.14-5.71l0,0c0,0,0.77-0.28,0.77-0.28
					L555.52,166.47z"/>
				<polygon class="st18" points="572.7,200.08 568.44,212.63 563.19,200.64 566.99,159.66 567.09,158.06 569.01,157.86 
					569.2,160.02 				"/>
				<polygon class="st19" points="569.2,160.02 568.24,161.14 566.99,159.66 567.09,158.06 569.01,157.86 				"/>
				<polygon class="st18" points="570.53,154.97 568.24,159.94 564.65,154.62 568.24,150.25 				"/>
				<path class="st7" d="M559.61,150.78c-0.39-1.44-0.43-2.96-0.09-4.41c0.09-0.4,0.21-0.76,0.35-0.99c0.88-1.42,2.9-0.78,2.9-0.78
					c0.98,4.18,5.48,5.65,5.48,5.65l-4.29,6.91C563.94,157.16,561.08,156.24,559.61,150.78z"/>
				<path class="st7" d="M570.93,146.48c0,0,2.67,2.53,1.89,5.55l-1.22,5.13l-3.37-6.91C568.24,150.25,570.05,148.45,570.93,146.48z
					"/>
			</g>
			<g>
				<g>
					<path class="st12" d="M572.92,141.39l-1.43,4.44l-0.91,2.83c-0.16,0.5-0.92,1.71-1.44,1.69c-3.26-0.13-5.4-2.06-6.67-3.72
						l0.98-6.9c0,0,1.8-0.34,3.9-0.39c0,0,0,0,0,0L572.92,141.39z"/>
					<path class="st16" d="M572.92,141.39l-1.43,4.44c-3.39-1.97-4.48-5.49-4.72-6.46c0.19-0.01,0.38-0.02,0.58-0.02L572.92,141.39z
						"/>
				</g>
				<path class="st12" d="M579.93,125.21c0.32,2.29,0.65,5.17,0.65,7.52c0,0.01,0,0.02,0,0.03c0,0,0,0,0,0
					c0,0.57-0.02,1.12-0.06,1.61c-0.03,0.29-0.06,0.59-0.1,0.91c-0.07,0.57-0.11,1.2-0.17,1.87c0,0.04-0.01,0.07-0.01,0.11
					c-0.08,0.96-0.16,1.98-0.35,2.97c0,0,0,0,0,0.01c-0.08,0.44-0.19,0.86-0.31,1.27c-0.07,0.23-0.15,0.46-0.25,0.68
					c-1.2,2.92-2.08,5.25-9.46,0.32c-3.39-2.27-7.22-1.54-8.83-5.67c-0.01-0.02-0.02-0.05-0.03-0.07c0-0.01,0-0.01,0-0.01
					c-1.09-2.82-1.73-5.76-2.09-7.88c-0.37-2.16,0.43-4.36,2.11-5.78c4.53-3.85,10.1-3.79,13.88-3.11
					C577.53,120.46,579.56,122.57,579.93,125.21z"/>
				<g>
					<path class="st16" d="M579.57,141.51c-0.07,0.23-0.15,0.46-0.25,0.68c-0.11,0.01-0.22,0.01-0.34,0
						c-0.83-0.07-1.51-0.55-1.54-0.57c-0.14-0.1-0.18-0.31-0.07-0.45c0.1-0.15,0.31-0.18,0.45-0.07c0.01,0,0.56,0.39,1.21,0.45
						C579.22,141.56,579.41,141.54,579.57,141.51z"/>
				</g>
				<path class="st16" d="M566.55,135.35c0,0,1.38-0.33,2.12-1.57c0,0-0.28,3.33-2.94,3.31L566.55,135.35z"/>
				<path class="st20" d="M581.28,120.53c2.18-2.36,2.19-6.22-1.14-6.75c-5.64-0.89-8.86-2-12.28-2.13
					c-3.42-0.12-5.12,3.75-8.64,4.73c-3.52,0.98-5.74,7.12-4.62,10.61c0.17,0.52,0.33,1.01,0.49,1.46
					c1.56,4.51,3.87,8.71,6.79,12.49c0.11,0.15,0.22,0.29,0.32,0.42c0.21,0.28,1.96,0.71,3.65-2.08c1.45-2.41,1.36-4.14,1.36-4.14
					c-3.36-0.45-5.88-4.61-4.39-6.8c0,0,0.66-0.77,1.55-0.86c1.97-0.19,3.59,0.99,4.01,2.23c0.41,1.25,0.7,2.15,0.7,2.15l1.94,0.16
					c0,0-0.96-3.19-1-4.35c-0.05-1.16,1.71-0.74,1.41-2.94c-0.3-2.2-2.21-2.48-1.39-3.33c0.82-0.85,6.39-0.17,8.02,0.73
					C579.66,123.04,581.28,120.53,581.28,120.53z"/>
				<g>
					<g>
						<g>
							<path class="st16" d="M567.2,132.22c-0.12,0.02-0.25-0.04-0.31-0.15c-0.85-1.72-2.87-2.09-2.89-2.1
								c-0.15-0.03-0.26-0.17-0.23-0.33c0.03-0.15,0.17-0.26,0.33-0.23c0.09,0.02,2.32,0.43,3.3,2.4c0.07,0.14,0.01,0.31-0.13,0.38
								C567.25,132.21,567.23,132.22,567.2,132.22z"/>
						</g>
					</g>
				</g>
				<g>
					<g>
						<g>
							<path class="st16" d="M565.13,131.67c-0.05,0.01-0.11,0.01-0.16-0.02c-0.14-0.06-0.21-0.22-0.16-0.37
								c0.01-0.02,0.25-0.59,0.88-1.04c0.13-0.09,0.3-0.06,0.39,0.07c0.09,0.13,0.06,0.3-0.07,0.39c-0.49,0.34-0.68,0.78-0.68,0.79
								C565.31,131.59,565.23,131.65,565.13,131.67z"/>
						</g>
					</g>
				</g>
				<path class="st20" d="M578.53,129.12c0.12,0.62-0.11,1.19-0.5,1.27c-0.4,0.08-0.81-0.37-0.93-0.99
					c-0.12-0.62,0.11-1.19,0.5-1.27C577.99,128.05,578.41,128.5,578.53,129.12z"/>
				<path class="st20" d="M573.87,126.46c0,0,2.76-1.75,5.25-1.19l0.01,1.32c0,0-3.43,0.36-5,1.37
					C573.89,127.5,573.77,127.01,573.87,126.46z"/>
				<path class="st12" d="M580.22,128.8c0,0,2.03,3.63,2.18,5.34c0.08,0.96-2.5,1.61-2.5,1.61L580.22,128.8z"/>
				<path class="st18" d="M580.25,137.16c0,0.04-0.01,0.07-0.01,0.11c-0.08,0.96-0.16,1.98-0.35,2.97c-0.07,0-0.15,0.01-0.22,0.01
					c-2.4,0.09-3.19-1.87-3.44-2.93L580.25,137.16z"/>
			</g>
		</g>
		<g>
			<g>
				<g>
					<path class="st9" d="M632.51,198.4c-2.54,0-4.61-2.07-4.61-4.61c0-2.54,2.07-4.61,4.61-4.61s4.61,2.07,4.61,4.61
						C637.12,196.33,635.06,198.4,632.51,198.4z M632.51,190.62c-1.75,0-3.17,1.42-3.17,3.17c0,1.75,1.42,3.17,3.17,3.17
						c1.75,0,3.17-1.42,3.17-3.17C635.68,192.05,634.26,190.62,632.51,190.62z"/>
				</g>
				<g>
					<path class="st10" d="M649.12,214.59c-2.54,0-4.61-2.07-4.61-4.61c0-2.54,2.07-4.61,4.61-4.61c2.54,0,4.61,2.07,4.61,4.61
						C653.73,212.52,651.66,214.59,649.12,214.59z M649.12,206.81c-1.75,0-3.17,1.42-3.17,3.17s1.42,3.17,3.17,3.17
						c1.75,0,3.17-1.42,3.17-3.17S650.86,206.81,649.12,206.81z"/>
				</g>
				<g>
					<g>
						<g>
							<path class="st9" d="M654.82,229.58c-0.4,0-0.72-0.32-0.72-0.72v-3.19c0-0.4,0.32-0.72,0.72-0.72c0.4,0,0.72,0.32,0.72,0.72
								v3.19C655.54,229.26,655.22,229.58,654.82,229.58z"/>
						</g>
						<g>
							<path class="st9" d="M654.82,235.16c-0.4,0-0.72-0.32-0.72-0.72v-3.19c0-0.4,0.32-0.72,0.72-0.72c0.4,0,0.72,0.32,0.72,0.72
								v3.19C655.54,234.84,655.22,235.16,654.82,235.16z"/>
						</g>
					</g>
					<g>
						<g>
							<path class="st9" d="M659.3,230.78h-2.87c-0.4,0-0.72-0.32-0.72-0.72s0.32-0.72,0.72-0.72h2.87c0.4,0,0.72,0.32,0.72,0.72
								S659.7,230.78,659.3,230.78z"/>
						</g>
						<g>
							<path class="st9" d="M653.21,230.78h-2.87c-0.4,0-0.72-0.32-0.72-0.72s0.32-0.72,0.72-0.72h2.87c0.4,0,0.72,0.32,0.72,0.72
								S653.61,230.78,653.21,230.78z"/>
						</g>
					</g>
				</g>
				<g>
					<g>
						<g>
							<g>
								<g>
									<path class="st10" d="M629.35,211.7c-0.4,0-0.72-0.32-0.72-0.72v-3.19c0-0.4,0.32-0.72,0.72-0.72
										c0.4,0,0.72,0.32,0.72,0.72v3.19C630.07,211.37,629.74,211.7,629.35,211.7z"/>
								</g>
							</g>
							<g>
								<g>
									<path class="st10" d="M629.35,217.28c-0.4,0-0.72-0.32-0.72-0.72v-3.19c0-0.4,0.32-0.72,0.72-0.72
										c0.4,0,0.72,0.32,0.72,0.72v3.19C630.07,216.96,629.74,217.28,629.35,217.28z"/>
								</g>
							</g>
						</g>
						<g>
							<g>
								<g>
									<path class="st10" d="M633.82,212.89h-2.87c-0.4,0-0.72-0.32-0.72-0.72c0-0.4,0.32-0.72,0.72-0.72h2.87
										c0.4,0,0.72,0.32,0.72,0.72C634.55,212.57,634.22,212.89,633.82,212.89z"/>
								</g>
							</g>
							<g>
								<g>
									<path class="st10" d="M627.73,212.89h-2.87c-0.4,0-0.72-0.32-0.72-0.72c0-0.4,0.32-0.72,0.72-0.72h2.87
										c0.4,0,0.72,0.32,0.72,0.72C628.46,212.57,628.13,212.89,627.73,212.89z"/>
								</g>
							</g>
						</g>
					</g>
				</g>
			</g>
			<g>
				<g>
					<g>
						<g>
							<g>
								<path class="st9" d="M461.9,132.94c-2.54,0-4.61-2.07-4.61-4.61c0-2.54,2.07-4.61,4.61-4.61s4.61,2.07,4.61,4.61
									C466.52,130.87,464.45,132.94,461.9,132.94z M461.9,131.49c1.75,0,3.17-1.42,3.17-3.17c0-1.75-1.42-3.17-3.17-3.17
									c-1.75,0-3.17,1.42-3.17,3.17C458.74,130.07,460.16,131.49,461.9,131.49z"/>
							</g>
						</g>
					</g>
				</g>
				<g>
					<g>
						<g>
							<g>
								<path class="st10" d="M478.7,148.18c-2.54,0-4.61-2.07-4.61-4.61s2.07-4.61,4.61-4.61c2.54,0,4.61,2.07,4.61,4.61
									S481.25,148.18,478.7,148.18z M478.7,146.73c1.75,0,3.17-1.42,3.17-3.17s-1.42-3.17-3.17-3.17c-1.75,0-3.17,1.42-3.17,3.17
									S476.96,146.73,478.7,146.73z"/>
							</g>
						</g>
					</g>
				</g>
				<g>
					<g>
						<g>
							<path class="st9" d="M484.79,121.81c0-0.4-0.32-0.72-0.72-0.72h-3.19c-0.4,0-0.72,0.32-0.72,0.72c0,0.4,0.32,0.72,0.72,0.72
								h3.19C484.47,122.53,484.79,122.21,484.79,121.81z"/>
						</g>
						<g>
							<path class="st9" d="M490.37,121.81c0-0.4-0.32-0.72-0.72-0.72h-3.19c-0.4,0-0.72,0.32-0.72,0.72c0,0.4,0.32,0.72,0.72,0.72
								h3.19C490.05,122.53,490.37,122.21,490.37,121.81z"/>
						</g>
					</g>
					<g>
						<g>
							<path class="st9" d="M485.99,126.29v-2.87c0-0.4-0.32-0.72-0.72-0.72c-0.4,0-0.72,0.32-0.72,0.72v2.87
								c0,0.4,0.32,0.72,0.72,0.72C485.66,127.01,485.99,126.69,485.99,126.29z"/>
						</g>
						<g>
							<path class="st9" d="M485.99,120.2v-2.87c0-0.4-0.32-0.72-0.72-0.72c-0.4,0-0.72,0.32-0.72,0.72v2.87
								c0,0.4,0.32,0.72,0.72,0.72C485.66,120.92,485.99,120.59,485.99,120.2z"/>
						</g>
					</g>
				</g>
				<g>
					<g>
						<g>
							<g>
								<g>
									<path class="st10" d="M451,146.73c0-0.4-0.32-0.72-0.72-0.72h-3.19c-0.4,0-0.72,0.32-0.72,0.72c0,0.4,0.32,0.72,0.72,0.72
										h3.19C450.67,147.45,451,147.13,451,146.73z"/>
								</g>
							</g>
							<g>
								<g>
									<g>
										<path class="st10" d="M456.58,146.73c0-0.4-0.32-0.72-0.72-0.72h-3.19c-0.4,0-0.72,0.32-0.72,0.72
											c0,0.4,0.32,0.72,0.72,0.72h3.19C456.26,147.45,456.58,147.13,456.58,146.73z"/>
									</g>
								</g>
							</g>
						</g>
						<g>
							<g>
								<g>
									<path class="st10" d="M452.19,151.21v-2.87c0-0.4-0.32-0.72-0.72-0.72c-0.4,0-0.72,0.32-0.72,0.72v2.87
										c0,0.4,0.32,0.72,0.72,0.72C451.87,151.93,452.19,151.61,452.19,151.21z"/>
								</g>
							</g>
							<g>
								<g>
									<path class="st10" d="M452.19,145.12v-2.87c0-0.4-0.32-0.72-0.72-0.72c-0.4,0-0.72,0.32-0.72,0.72v2.87
										c0,0.4,0.32,0.72,0.72,0.72C451.87,145.84,452.19,145.52,452.19,145.12z"/>
								</g>
							</g>
						</g>
					</g>
				</g>
			</g>
			<g>
				<g>
					<g>
						<g>
							<g>
								<path class="st10" d="M624.83,123.88h-12.11c-3.95,0-7.15-3.2-7.15-7.15v-12.11c0-3.95,3.2-7.15,7.15-7.15h12.11
									c3.95,0,7.15,3.2,7.15,7.15v12.11C631.99,120.68,628.78,123.88,624.83,123.88z"/>
							</g>
						</g>
					</g>
				</g>
				<g>
					<path class="st18" d="M610.33,107.52c0-2.37,1.53-3.72,3.55-3.72c2.02,0,3.55,1.36,3.55,3.72c0,2.39-1.53,3.72-3.55,3.72
						C611.86,111.24,610.33,109.91,610.33,107.52z M621.73,103.99h3.23l-9.13,13.37h-3.23L621.73,103.99z M614.72,107.52
						c0-1.28-0.42-1.66-0.84-1.66c-0.42,0-0.84,0.38-0.84,1.66c0,1.28,0.42,1.66,0.84,1.66C614.3,109.18,614.72,108.8,614.72,107.52
						z M620.13,113.82c0-2.37,1.53-3.72,3.55-3.72c2.03,0,3.55,1.36,3.55,3.72c0,2.39-1.53,3.73-3.55,3.73
						C621.65,117.55,620.13,116.21,620.13,113.82z M624.52,113.82c0-1.28-0.42-1.66-0.84-1.66c-0.42,0-0.84,0.38-0.84,1.66
						c0,1.28,0.42,1.66,0.84,1.66C624.1,115.48,624.52,115.1,624.52,113.82z"/>
				</g>
			</g>
			<g>
				<g>
					<g>
						<g>
							<g>
								<path class="st10" d="M425.64,232.66h-12.11c-3.95,0-7.15-3.2-7.15-7.15V213.4c0-3.95,3.2-7.15,7.15-7.15h12.11
									c3.95,0,7.15,3.2,7.15,7.15v12.11C432.79,229.46,429.59,232.66,425.64,232.66z"/>
							</g>
						</g>
					</g>
				</g>
				<g>
					<g>
						<path class="st18" d="M421.1,226.02l0,2.03l-2.58,0l0-1.94c-1.83-0.11-3.6-0.6-4.7-1.28l1.39-3.15
							c1.21,0.71,2.82,1.17,4.23,1.17c1.23,0,1.66-0.26,1.66-0.7c0-1.61-7.08-0.3-7.08-5.08c0-2.07,1.5-3.81,4.5-4.23l0-1.99l2.58,0
							l0,1.96c1.35,0.13,2.67,0.47,3.71,1.06l-1.3,3.13c-1.26-0.64-2.45-0.95-3.57-0.95c-1.26,0-1.66,0.37-1.66,0.81
							c0,1.54,7.08,0.25,7.08,4.97C425.36,223.8,423.93,225.52,421.1,226.02z"/>
					</g>
				</g>
			</g>
		</g>
	</g>
</g>
</svg>
